<svg width="133" height="24" viewBox="0 0 133 24" fill="none" xmlns="http://www.w3.org/2000/svg">
<path d="M17 15.6411H8L5 20.1411L11 23.1411C14.2 22.7411 16.3333 17.9744 17 15.6411Z" fill="url(#paint0_linear_15_4067)"/>
<path d="M0 18.141V0.140958C3.2 -0.659042 6 2.14096 7 3.64096L8 16.141C8 20.141 10.3333 22.4743 11.5 23.141L10.5 23.641C4.1 24.841 0.833333 20.4743 0 18.141Z" fill="#1877F2"/>
<path d="M6.5 4.64094C2.5 5.84094 0.5 10.1409 0 12.1409C1.6 12.9408 6 12.4742 8 12.1409C12 11.7408 13.6667 6.97422 14 4.64094C12 3.84094 8.16667 4.30761 6.5 4.64094Z" fill="url(#paint1_linear_15_4067)"/>
<path d="M22 7.93071V6.15947H32.239V7.93071H28.2725V17.8234H25.9665V7.93071H22Z" fill="#1877F2"/>
<path d="M34.2129 17.8234V6.15947H39.0253C40.0112 6.15947 40.8384 6.31514 41.5068 6.62648C42.1793 6.93783 42.6869 7.37447 43.0295 7.9364C43.3762 8.49454 43.5496 9.14571 43.5496 9.88989C43.5496 10.6379 43.3741 11.2871 43.0232 11.8377C42.6765 12.3844 42.1647 12.8078 41.488 13.1077C40.6847 13.2508 40.3372 13.3127 38.994 13.552H36.5377V11.7978H38.6807C39.2572 11.7978 39.7293 11.7257 40.0969 11.5814C40.4645 11.4333 40.736 11.2188 40.9115 10.9378C41.0911 10.6531 41.1809 10.3037 41.1809 9.88989C41.1809 9.47603 41.0911 9.12292 40.9115 8.83056C40.7318 8.53441 40.4582 8.31039 40.0906 8.15852C39.723 8.00285 39.2488 7.92501 38.6682 7.92501H36.5377V17.8234H34.2129ZM41.488 13.1077L44.0195 17.8234H41.4253L38.994 13.552L41.488 13.1077Z" fill="#1877F2"/>
<path d="M53.7792 6.15947H56.104V13.7798C56.104 14.6151 55.8867 15.3498 55.4523 15.9839C55.022 16.6179 54.4163 17.1134 53.6351 17.4703C52.8539 17.8234 51.9411 18 50.8967 18C49.8482 18 48.9333 17.8234 48.1521 17.4703C47.3709 17.1134 46.7652 16.6179 46.3349 15.9839C45.9046 15.3498 45.6895 14.6151 45.6895 13.7798V6.15947H48.0143V13.6032C48.0143 14.0892 48.1312 14.5221 48.3652 14.9018C48.6033 15.2814 48.9375 15.5795 49.3678 15.7959C49.798 16.0085 50.3077 16.1149 50.8967 16.1149C51.4857 16.1149 51.9954 16.0085 52.4257 15.7959C52.8601 15.5795 53.1943 15.2814 53.4283 14.9018C53.6622 14.5221 53.7792 14.0892 53.7792 13.6032V6.15947Z" fill="#1877F2"/>
<path d="M69.6155 10.0949H67.2719C67.2051 9.74561 67.0819 9.43617 66.9022 9.16659C66.7226 8.89321 66.4991 8.6616 66.2318 8.47176C65.9644 8.28192 65.6594 8.13953 65.3169 8.04461C64.9785 7.94589 64.613 7.89654 64.2203 7.89654C63.5227 7.89654 62.9044 8.056 62.3655 8.37494C61.8266 8.69008 61.4047 9.1533 61.0997 9.76459C60.7948 10.3721 60.6423 11.1144 60.6423 11.9915C60.6423 12.8837 60.7948 13.6355 61.0997 14.2468C61.4088 14.8543 61.8308 15.3137 62.3655 15.6251C62.9044 15.9326 63.5206 16.0864 64.214 16.0864C64.5984 16.0864 64.9576 16.0408 65.2918 15.9497C65.6302 15.8548 65.9331 15.7162 66.2004 15.5339C66.472 15.3517 66.6996 15.1277 66.8834 14.8619C67.0714 14.5961 67.2009 14.2924 67.2719 13.9506L69.6155 13.962C69.5278 14.5164 69.3377 15.0365 69.0453 15.5225C68.757 16.0085 68.379 16.4376 67.9111 16.8097C67.4432 17.178 66.896 17.4665 66.2693 17.6754C65.6427 17.8804 64.9472 17.9829 64.1827 17.9829C63.0548 17.9829 62.048 17.7456 61.1624 17.271C60.2767 16.7964 59.5791 16.1111 59.0695 15.215C58.5598 14.3189 58.305 13.2444 58.305 11.9915C58.305 10.7347 58.5619 9.66018 59.0757 8.76792C59.5895 7.87186 60.2893 7.18652 61.1749 6.71191C62.0605 6.2373 63.0631 6 64.1827 6C64.897 6 65.5613 6.09112 66.1754 6.27337C66.7894 6.45562 67.3367 6.7233 67.8171 7.07641C68.2975 7.42572 68.6923 7.85477 69.0014 8.36355C69.3147 8.86853 69.5194 9.44566 69.6155 10.0949Z" fill="#1877F2"/>
<path d="M71.7445 17.8234V6.15947H74.0692V11.5187H74.2259L79.2326 6.15947H82.0712L77.1084 11.3935L82.1151 17.8234H79.3203L75.4917 12.823L74.0692 14.3493V17.8234H71.7445Z" fill="#1877F2"/>
<path d="M83.9746 17.8234V6.15947H88.3108C89.3176 6.15947 90.1406 6.32463 90.7797 6.65496C91.423 6.98149 91.8993 7.42383 92.2084 7.98196C92.5175 8.5401 92.6721 9.16279 92.6721 9.85002C92.6721 10.5373 92.5175 11.1618 92.2084 11.7238C91.9035 12.2857 91.4314 12.7337 90.7922 13.0679C90.1531 13.3982 89.3343 13.5634 88.3359 13.5634L85.5286 13.5V12.3104H88.2857C88.975 12.3104 89.5285 12.2022 89.9463 11.9858C90.364 11.7693 90.6669 11.477 90.8549 11.1087C91.0471 10.7366 91.1432 10.317 91.1432 9.85002C91.1432 9.38301 91.0471 8.96535 90.8549 8.59706C90.6669 8.22876 90.362 7.9402 89.94 7.73137C89.5181 7.51875 88.9583 7.41243 88.2607 7.41243H85.5286V17.8234H83.9746Z" fill="#1877F2" fill-opacity="0.8"/>
<path d="M95.1755 17.8234V6.15947H102.921V7.41243H96.7295V11.3536H102.519V12.6065H96.7295V16.5705H103.021V17.8234H95.1755Z" fill="#1877F2" fill-opacity="0.8"/>
<path d="M109.682 17.8234H105.722V6.15947H109.857C111.102 6.15947 112.167 6.39298 113.053 6.85999C113.939 7.32321 114.617 7.98956 115.09 8.85904C115.562 9.72473 115.798 10.7613 115.798 11.9687C115.798 13.1837 115.56 14.2297 115.083 15.1068C114.607 15.9801 113.914 16.6521 113.003 17.1229C112.092 17.5899 110.985 17.8234 109.682 17.8234ZM107.276 16.5705H109.582C110.643 16.5705 111.522 16.3844 112.22 16.0123C112.917 15.6402 113.437 15.1106 113.78 14.4234C114.122 13.7361 114.294 12.9179 114.294 11.9687C114.294 11.0271 114.125 10.2164 113.786 9.53678C113.448 8.85335 112.942 8.32938 112.27 7.96488C111.597 7.59658 110.76 7.41243 109.757 7.41243H107.276V16.5705Z" fill="#1877F2" fill-opacity="0.8"/>
<path d="M119.958 6.15947V17.8234H118.404V6.15947H119.958Z" fill="#1877F2" fill-opacity="0.8"/>
<path d="M123.601 17.8234H121.971L126.684 6.15947H128.288L133 17.8234H131.371L127.536 8.00475H127.436L123.601 17.8234ZM125.38 13.2672H129.591L130.073 14.5H124.899L125.38 13.2672Z" fill="#1877F2" fill-opacity="0.8"/>
<defs>
<linearGradient id="paint0_linear_15_4067" x1="11" y1="15.6411" x2="11" y2="23.1411" gradientUnits="userSpaceOnUse">
<stop stop-color="#1877F2"/>
<stop offset="1" stop-color="#0B53AF"/>
</linearGradient>
<linearGradient id="paint1_linear_15_4067" x1="7" y1="4.19922" x2="7" y2="12.5826" gradientUnits="userSpaceOnUse">
<stop stop-color="#1877F2"/>
<stop offset="1" stop-color="#0B53AF"/>
</linearGradient>
</defs>
</svg>
