<svg width="504" height="336" viewBox="0 0 504 336" fill="none" xmlns="http://www.w3.org/2000/svg">
<path d="M47.7124 71.1715L48.1022 72.0988C49.6771 75.9585 52.2779 79.3137 55.623 81.8012C58.968 84.2886 62.9299 85.8136 67.0795 86.2108C68.1634 86.3049 69.2528 86.3184 70.3387 86.2512C74.2791 85.953 78.0847 84.6853 81.4167 82.5609C84.7488 80.4364 87.5039 77.5211 89.4369 74.0745C91.6948 69.9955 92.8843 65.0899 96.4459 62.1196C101.083 58.2556 107.87 59.1158 113.743 60.1843C119.616 61.2527 126.417 62.0927 131.04 58.2019C133.937 55.7625 135.314 51.8918 135.677 48.1219C136.631 38.1023 131.027 28.1769 122.909 22.4447C114.791 16.7126 104.396 14.7839 94.4635 15.2611C80.5464 15.9667 66.5822 21.5039 57.1204 31.9334C47.6587 42.3628 43.3915 57.792 47.7124 71.1715Z" fill="#F5F5F5"/>
<path d="M447.002 293.307L447.096 292.299C447.54 288.157 446.842 283.971 445.078 280.197C443.314 276.422 440.552 273.201 437.09 270.883C436.181 270.286 435.229 269.758 434.241 269.304C430.631 267.695 426.679 267.004 422.738 267.291C418.796 267.579 414.987 268.835 411.648 270.95C407.73 273.47 404.357 277.22 399.807 278.147C393.894 279.35 388.35 275.379 383.679 271.635C379.009 267.892 373.438 263.934 367.551 265.164C363.849 265.937 360.831 268.685 358.681 271.844C353.083 280.217 353.305 291.607 357.754 300.525C362.202 309.442 370.367 316.048 379.352 320.322C391.938 326.303 406.863 328.036 420.115 323.366C433.367 318.696 444.442 307.144 447.002 293.307Z" fill="#F5F5F5"/>
<path d="M451.146 45.8532C453.419 31.3593 443.511 17.7676 429.017 15.4953C414.523 13.223 400.932 23.1306 398.659 37.6246C396.387 52.1185 406.295 65.7102 420.789 67.9825C435.282 70.2548 448.874 60.3472 451.146 45.8532Z" fill="#F5F5F5"/>
<path d="M96.5101 320.026C110.064 314.412 116.501 298.872 110.887 285.318C105.272 271.764 89.733 265.327 76.1788 270.942C62.6246 276.556 56.188 292.095 61.8024 305.65C67.4167 319.204 82.9559 325.64 96.5101 320.026Z" fill="#F5F5F5"/>
<path d="M482.511 98.4414H367.176V258.754H482.511V98.4414Z" fill="white"/>
<path d="M482.511 98.4414H367.176V156.469H482.511V98.4414Z" fill="#455A64"/>
<path d="M462.538 170.687C462.538 170.788 446.679 170.869 427.123 170.869C407.568 170.869 391.709 170.788 391.709 170.687C391.709 170.587 407.561 170.513 427.123 170.513C446.685 170.513 462.538 170.573 462.538 170.687Z" fill="#263238"/>
<path d="M462.538 186.299C462.538 186.393 446.679 186.473 427.123 186.473C407.568 186.473 391.709 186.393 391.709 186.299C391.709 186.205 407.561 186.124 427.123 186.124C446.685 186.124 462.538 186.205 462.538 186.299Z" fill="#263238"/>
<path d="M462.538 201.929C462.538 202.024 446.679 202.104 427.123 202.104C407.568 202.104 391.709 202.024 391.709 201.929C391.709 201.835 407.561 201.748 427.123 201.748C446.685 201.748 462.538 201.829 462.538 201.929Z" fill="#263238"/>
<path d="M462.243 219.945H392.967C386.153 219.945 380.629 225.469 380.629 232.283V233.567C380.629 240.381 386.153 245.905 392.967 245.905H462.243C469.057 245.905 474.581 240.381 474.581 233.567V232.283C474.581 225.469 469.057 219.945 462.243 219.945Z" fill="#455A64"/>
<path d="M401.756 138.102C402.248 138.301 402.666 138.648 402.953 139.094C403.239 139.541 403.38 140.066 403.355 140.596C403.369 141.125 403.226 141.646 402.945 142.094C402.651 142.528 402.238 142.869 401.756 143.075C401.185 143.318 400.569 143.437 399.948 143.425H398.604V145.441H396.434V137.76H399.941C400.564 137.741 401.183 137.858 401.756 138.102ZM400.828 141.422C401.043 141.199 401.163 140.902 401.163 140.592C401.163 140.283 401.043 139.985 400.828 139.762C400.54 139.544 400.181 139.438 399.82 139.467H398.611V141.711H399.841C400.194 141.733 400.543 141.631 400.828 141.422Z" fill="white"/>
<path d="M407.763 143.392H406.561V145.408H404.41V137.76H407.905C408.525 137.745 409.142 137.864 409.712 138.11C410.063 138.276 410.375 138.514 410.629 138.807C410.882 139.101 411.073 139.444 411.187 139.815C411.301 140.186 411.337 140.576 411.293 140.962C411.248 141.347 411.124 141.719 410.929 142.054C410.654 142.475 410.268 142.81 409.813 143.022L411.466 145.434H409.141L407.763 143.392ZM408.798 139.763C408.51 139.544 408.151 139.439 407.79 139.467H406.561V141.712H407.77C408.13 141.738 408.487 141.635 408.778 141.423C408.993 141.2 409.113 140.902 409.113 140.593C409.113 140.283 408.993 139.986 408.778 139.763H408.798Z" fill="white"/>
<path d="M418.656 143.754V145.427H412.494V137.76H418.542V139.44H414.671V140.73H418.078V142.356H414.671V143.761L418.656 143.754Z" fill="white"/>
<path d="M426.815 145.427V141.395L424.84 144.708H423.879L421.916 141.503V145.461H419.9V137.76H421.688L424.376 142.188L427.003 137.76H428.791V145.434L426.815 145.427Z" fill="white"/>
<path d="M430.35 137.76H432.52V145.434H430.35V137.76Z" fill="white"/>
<path d="M434.945 144.648C434.615 144.296 434.36 143.88 434.197 143.426C434.034 142.971 433.966 142.488 433.998 142.007V137.76H436.168V141.946C436.168 143.176 436.652 143.788 437.626 143.788C438.601 143.788 439.071 143.176 439.071 141.946V137.76H441.208V142.014C441.239 142.495 441.171 142.978 441.008 143.432C440.845 143.887 440.591 144.302 440.261 144.654C439.507 145.259 438.569 145.589 437.603 145.589C436.636 145.589 435.699 145.259 434.945 144.654V144.648Z" fill="white"/>
<path d="M449.608 145.427V141.395L447.639 144.708H446.672L444.709 141.503V145.461H442.693V137.76H444.481L447.169 142.188L449.796 137.76H451.584V145.434L449.608 145.427Z" fill="white"/>
<path d="M410.008 235.549C409.429 235.241 408.949 234.775 408.624 234.205C408.289 233.627 408.113 232.971 408.113 232.304C408.113 231.636 408.289 230.98 408.624 230.402C408.956 229.846 409.435 229.392 410.008 229.091C410.629 228.763 411.323 228.599 412.024 228.614C412.599 228.603 413.17 228.716 413.697 228.944C414.188 229.149 414.621 229.469 414.961 229.878L413.899 230.859C413.682 230.593 413.408 230.38 413.098 230.234C412.787 230.089 412.448 230.015 412.105 230.019C411.692 230.013 411.284 230.115 410.922 230.314C410.581 230.502 410.299 230.781 410.109 231.121C409.915 231.485 409.816 231.891 409.82 232.304C409.814 232.716 409.914 233.123 410.109 233.486C410.297 233.829 410.579 234.111 410.922 234.299C411.285 234.497 411.692 234.597 412.105 234.588C412.448 234.592 412.789 234.518 413.099 234.371C413.41 234.225 413.684 234.009 413.899 233.742L414.961 234.723C414.621 235.134 414.188 235.459 413.697 235.67C413.163 235.891 412.589 236.001 412.011 235.993C411.316 236.018 410.627 235.865 410.008 235.549Z" fill="white"/>
<path d="M420.901 230.946C421.125 231.189 421.297 231.476 421.406 231.788C421.514 232.1 421.558 232.431 421.533 232.761V235.872H419.94V232.976C419.967 232.629 419.867 232.285 419.658 232.008C419.552 231.898 419.423 231.812 419.28 231.756C419.138 231.701 418.985 231.676 418.832 231.685C418.655 231.677 418.478 231.705 418.312 231.768C418.147 231.832 417.996 231.93 417.871 232.055C417.613 232.365 417.486 232.762 417.515 233.164V235.852H415.922V228.339H417.515V230.987C417.732 230.772 417.993 230.607 418.281 230.503C418.592 230.387 418.923 230.33 419.255 230.335C419.556 230.32 419.858 230.367 420.141 230.472C420.424 230.577 420.682 230.739 420.901 230.946Z" fill="white"/>
<path d="M424.086 235.623C423.641 235.393 423.268 235.044 423.011 234.615C422.755 234.171 422.621 233.668 422.621 233.156C422.621 232.645 422.755 232.142 423.011 231.698C423.269 231.271 423.642 230.924 424.086 230.697C424.569 230.458 425.1 230.334 425.638 230.334C426.177 230.334 426.708 230.458 427.191 230.697C427.633 230.925 428.002 231.272 428.259 231.698C428.514 232.142 428.649 232.645 428.649 233.156C428.649 233.668 428.514 234.171 428.259 234.615C428.003 235.043 427.633 235.392 427.191 235.623C426.707 235.857 426.176 235.979 425.638 235.979C425.101 235.979 424.57 235.857 424.086 235.623ZM426.646 234.279C426.918 233.975 427.058 233.576 427.036 233.17C427.047 232.97 427.019 232.769 426.952 232.58C426.885 232.39 426.781 232.216 426.646 232.068C426.514 231.935 426.357 231.83 426.184 231.759C426.011 231.687 425.826 231.65 425.638 231.65C425.451 231.65 425.266 231.687 425.093 231.759C424.92 231.83 424.763 231.935 424.63 232.068C424.493 232.215 424.388 232.389 424.319 232.578C424.251 232.768 424.222 232.969 424.234 233.17C424.223 233.372 424.252 233.574 424.32 233.764C424.388 233.955 424.494 234.13 424.63 234.279C424.9 234.541 425.262 234.688 425.638 234.688C426.015 234.688 426.377 234.541 426.646 234.279Z" fill="white"/>
<path d="M430.753 235.623C430.309 235.392 429.937 235.043 429.678 234.615C429.427 234.17 429.295 233.668 429.295 233.157C429.295 232.646 429.427 232.144 429.678 231.699C429.936 231.272 430.308 230.925 430.753 230.697C431.235 230.451 431.77 230.326 432.312 230.335C432.849 230.325 433.381 230.449 433.857 230.697C434.302 230.925 434.674 231.272 434.933 231.699C435.183 232.144 435.315 232.646 435.315 233.157C435.315 233.668 435.183 234.17 434.933 234.615C434.673 235.043 434.301 235.392 433.857 235.623C433.379 235.866 432.848 235.988 432.312 235.979C431.771 235.988 431.236 235.866 430.753 235.623ZM433.313 234.279C433.586 233.976 433.729 233.578 433.71 233.17C433.72 232.97 433.69 232.769 433.622 232.58C433.554 232.39 433.449 232.217 433.313 232.068C433.184 231.933 433.029 231.826 432.856 231.755C432.684 231.683 432.498 231.648 432.312 231.652C432.124 231.647 431.937 231.681 431.764 231.753C431.59 231.825 431.433 231.932 431.304 232.068C431.166 232.215 431.059 232.389 430.989 232.578C430.92 232.767 430.89 232.969 430.901 233.17C430.89 233.373 430.921 233.575 430.99 233.766C431.059 233.956 431.166 234.131 431.304 234.279C431.434 234.414 431.591 234.52 431.764 234.591C431.938 234.661 432.124 234.695 432.312 234.689C432.5 234.693 432.687 234.657 432.861 234.585C433.034 234.512 433.191 234.403 433.32 234.266L433.313 234.279Z" fill="white"/>
<path d="M436.895 235.811C436.526 235.731 436.174 235.588 435.854 235.388L436.384 234.246C436.658 234.419 436.957 234.549 437.271 234.629C437.603 234.726 437.947 234.776 438.293 234.776C438.965 234.776 439.301 234.615 439.301 234.279C439.298 234.201 439.27 234.125 439.22 234.064C439.17 234.004 439.102 233.961 439.025 233.943C438.75 233.855 438.466 233.796 438.179 233.768C437.804 233.716 437.433 233.638 437.07 233.533C436.779 233.448 436.516 233.286 436.31 233.063C436.083 232.799 435.968 232.456 435.988 232.109C435.983 231.777 436.089 231.452 436.29 231.188C436.516 230.899 436.819 230.68 437.164 230.556C437.595 230.402 438.05 230.327 438.508 230.335C438.897 230.334 439.284 230.377 439.664 230.462C439.997 230.531 440.319 230.648 440.618 230.812L440.087 231.947C439.606 231.673 439.061 231.532 438.508 231.537C438.245 231.521 437.982 231.57 437.742 231.679C437.669 231.711 437.607 231.762 437.562 231.827C437.517 231.893 437.491 231.969 437.486 232.048C437.487 232.13 437.514 232.209 437.564 232.273C437.614 232.337 437.683 232.384 437.762 232.404C438.047 232.496 438.339 232.561 438.636 232.599C439.007 232.657 439.375 232.735 439.738 232.834C440.023 232.92 440.281 233.08 440.484 233.298C440.705 233.56 440.818 233.896 440.799 234.239C440.805 234.567 440.698 234.887 440.497 235.146C440.261 235.43 439.952 235.644 439.603 235.764C439.156 235.919 438.685 235.992 438.212 235.979C437.768 235.979 437.325 235.923 436.895 235.811Z" fill="white"/>
<path d="M447.136 233.607H442.99C443.055 233.935 443.245 234.224 443.521 234.414C443.828 234.619 444.193 234.722 444.562 234.709C444.821 234.711 445.078 234.668 445.321 234.582C445.55 234.489 445.758 234.352 445.933 234.179L446.78 235.092C446.493 235.399 446.141 235.637 445.751 235.79C445.36 235.944 444.94 236.008 444.522 235.98C443.953 235.99 443.389 235.868 442.875 235.623C442.42 235.398 442.038 235.049 441.773 234.615C441.522 234.172 441.391 233.67 441.391 233.16C441.391 232.651 441.522 232.149 441.773 231.706C442.024 231.28 442.386 230.931 442.822 230.698C443.279 230.466 443.784 230.345 444.297 230.345C444.809 230.345 445.315 230.466 445.772 230.698C446.202 230.925 446.558 231.27 446.8 231.692C447.054 232.152 447.181 232.672 447.169 233.197C447.169 233.197 447.163 233.339 447.136 233.607ZM443.42 231.84C443.168 232.053 443.008 232.353 442.969 232.68H445.657C445.618 232.355 445.457 232.058 445.207 231.847C444.957 231.639 444.639 231.529 444.313 231.538C443.989 231.527 443.671 231.635 443.42 231.84Z" fill="white"/>
<path d="M384.505 173.584C384.258 173.587 384.018 173.498 383.833 173.335L381.857 171.595C381.657 171.416 381.535 171.166 381.519 170.898C381.504 170.63 381.595 170.367 381.773 170.167C381.951 169.966 382.202 169.845 382.47 169.829C382.737 169.813 383.001 169.904 383.201 170.083L384.431 171.165L387.213 168.087C387.395 167.905 387.64 167.799 387.898 167.792C388.156 167.785 388.406 167.877 388.598 168.05C388.79 168.222 388.909 168.461 388.93 168.718C388.951 168.975 388.873 169.23 388.711 169.431L385.257 173.241C385.163 173.348 385.048 173.434 384.918 173.493C384.788 173.552 384.647 173.583 384.505 173.584Z" fill="#455A64"/>
<path d="M384.505 189.208C384.258 189.211 384.019 189.123 383.833 188.96L381.858 187.226C381.758 187.138 381.677 187.031 381.618 186.911C381.56 186.791 381.526 186.661 381.518 186.528C381.501 186.26 381.592 185.996 381.77 185.794C381.948 185.593 382.199 185.471 382.468 185.454C382.736 185.438 383 185.529 383.202 185.707L384.431 186.789L387.213 183.718C387.299 183.611 387.406 183.523 387.527 183.459C387.648 183.394 387.781 183.355 387.917 183.344C388.054 183.333 388.191 183.35 388.321 183.393C388.451 183.437 388.571 183.507 388.673 183.598C388.775 183.69 388.857 183.801 388.915 183.926C388.972 184.05 389.004 184.185 389.007 184.322C389.011 184.459 388.987 184.595 388.936 184.722C388.885 184.85 388.809 184.965 388.712 185.062L385.258 188.872C385.164 188.979 385.048 189.065 384.918 189.122C384.788 189.18 384.648 189.21 384.505 189.208Z" fill="#455A64"/>
<path d="M384.505 204.839C384.258 204.842 384.018 204.753 383.833 204.59L381.857 202.85C381.657 202.671 381.535 202.421 381.519 202.153C381.504 201.885 381.595 201.622 381.773 201.422C381.951 201.221 382.202 201.1 382.47 201.084C382.737 201.068 383.001 201.159 383.201 201.338L384.431 202.419L387.213 199.342C387.395 199.16 387.64 199.054 387.898 199.047C388.156 199.04 388.406 199.132 388.598 199.304C388.79 199.477 388.909 199.716 388.93 199.973C388.951 200.229 388.873 200.485 388.711 200.686L385.257 204.496C385.163 204.603 385.048 204.689 384.918 204.748C384.788 204.807 384.647 204.838 384.505 204.839Z" fill="#455A64"/>
<path d="M431.713 113.944L433.373 117.311L437.096 117.855L434.401 120.476L435.039 124.179L431.713 122.432L428.386 124.179L429.018 120.476L426.33 117.855L430.046 117.311L431.713 113.944Z" fill="white"/>
<path d="M418.642 113.944L420.309 117.311L424.025 117.855L421.337 120.476L421.969 124.179L418.642 122.432L415.316 124.179L415.954 120.476L413.26 117.855L416.983 117.311L418.642 113.944Z" fill="white"/>
<path d="M429.213 127.827L424.839 125.469L420.424 127.727L421.317 122.848L417.803 119.34L422.722 118.681L424.966 114.253L427.117 118.728L432.022 119.501L428.427 122.928L429.213 127.827Z" fill="white"/>
<path d="M416.936 119.044L422.459 118.312L424.979 113.346L427.385 118.366L432.889 119.232L428.857 123.07L429.737 128.573L424.838 125.926L419.879 128.459L420.88 122.982L416.936 119.044ZM431.155 119.77L426.848 119.098L424.959 115.16L422.984 119.051L418.656 119.615L421.74 122.693L420.961 127.007L424.845 124.991L428.682 127.068L428.01 122.76L431.155 119.77Z" fill="#455A64"/>
<path d="M482.497 258.753C482.497 257.342 482.43 193.2 482.335 98.4411L482.497 98.6024H367.175L367.35 98.4276C367.35 158.41 367.35 213.911 367.35 258.74L367.208 258.599L482.544 258.74L367.208 258.881H367.061V258.74C367.061 213.911 367.061 158.41 367.061 98.4276V98.2529H367.249H482.571H482.725V98.4075C482.571 193.2 482.497 257.376 482.497 258.753Z" fill="#263238"/>
<path d="M389.297 78.0455C389.65 77.3942 389.87 76.679 389.943 75.9417C390.016 75.2045 389.941 74.46 389.722 73.7521C389.504 73.0442 389.146 72.387 388.671 71.8191C388.195 71.2513 387.61 70.7841 386.952 70.4452C387.162 68.625 386.664 66.7935 385.561 65.3308C384.457 63.8681 382.833 62.8864 381.024 62.5895C379.291 62.3812 377.537 62.8381 375.796 62.7037C374.056 62.5693 372.551 61.8973 370.897 61.5949C369.244 61.2925 367.343 61.4672 366.193 62.7037C364.937 64.0477 365.125 66.3258 366.126 67.905C367.128 69.4842 368.74 70.5325 370.306 71.5405C369.836 71.5397 369.382 71.7096 369.029 72.0187C368.675 72.3278 368.446 72.755 368.384 73.2205C368.286 74.1754 368.545 75.1327 369.11 75.9085C369.964 77.2172 371.162 78.2647 372.573 78.9359C373.984 79.607 375.553 79.8756 377.107 79.712L381.495 79.5844C382.106 80.0034 382.794 80.2962 383.519 80.4457C384.245 80.5953 384.993 80.5985 385.719 80.4551C386.446 80.3118 387.137 80.0248 387.751 79.611C388.365 79.1973 388.891 78.665 389.297 78.0455Z" fill="#263238"/>
<path d="M375.432 82.3805C374.981 82.4206 374.531 82.2925 374.169 82.0208C373.807 81.7491 373.558 81.353 373.47 80.9088C373.401 80.4598 373.457 80.0005 373.631 79.581C373.805 79.1615 374.091 78.7979 374.458 78.5299C375.208 78.0157 376.113 77.7781 377.018 77.8579C377.921 77.9344 378.808 78.1403 379.653 78.4694C380.981 78.9063 382.251 79.502 383.436 80.2435C383.864 80.4939 384.231 80.8358 384.511 81.2448C384.65 81.4511 384.731 81.691 384.745 81.9393C384.759 82.1877 384.706 82.4352 384.592 82.656C384.229 83.2474 383.416 83.328 382.724 83.328C380.126 83.3399 377.532 83.1149 374.975 82.656" fill="#3975EB"/>
<path d="M373.989 80.9016C373.471 75.9825 366.529 71.5675 363.532 72.3537C362.769 70.9346 361.489 69.8637 359.958 69.3633C358.426 68.8628 356.761 68.9711 355.307 69.6657L347.136 66.0436C345.738 65.4254 344.273 64.787 342.754 64.9214C341.235 65.0558 339.69 66.2654 339.744 67.7774C336.794 66.6014 333.104 69.5784 333.642 72.7166C333.202 72.8167 332.787 73.0058 332.423 73.2723C332.059 73.5387 331.753 73.8769 331.525 74.2659C331.296 74.655 331.15 75.0866 331.094 75.5344C331.039 75.9822 331.076 76.4366 331.202 76.8696C327.538 77.7767 324.056 79.3041 320.907 81.3854C319.563 82.2523 318.266 83.3208 317.836 84.8328C317.406 86.3448 318.367 88.3204 319.94 88.3339C319.235 88.5688 318.613 89.0018 318.149 89.5811C317.684 90.1603 317.396 90.8611 317.319 91.5998C316.103 90.7531 314.396 92.3323 314.584 93.804C314.772 95.2756 316.029 96.3374 317.238 97.164C318.448 97.9905 319.785 98.891 320.269 100.289C320.152 100.428 320.007 100.543 319.844 100.625C319.681 100.707 319.504 100.755 319.322 100.766C316.056 100.927 313.374 103.367 313.334 106.632C313.334 106.935 313.334 107.217 313.334 107.466C313.334 108.958 314.355 111.108 315.014 112.439C316.674 115.799 318.475 116.733 321.163 119.374C318.918 120.718 320.652 128.593 329.341 128.472C338.292 139.655 345.503 146.697 357.027 155.198C358.674 156.414 360.818 157.644 362.632 156.703C363.707 158.047 365.602 158.477 367.302 158.235C368.984 157.889 370.595 157.26 372.067 156.374C373.794 157.004 375.675 157.084 377.449 156.603C379.224 156.122 380.806 155.103 381.979 153.686C383.504 153.633 385.001 153.263 386.375 152.6C387.75 151.937 388.971 150.996 389.962 149.835C393.356 151.025 397.522 148.545 398.1 144.997C400.004 141.151 401.257 137.016 401.81 132.76C404 133.734 406.581 131.711 407.105 129.366C407.629 127.021 406.742 124.662 405.868 122.398C407.011 123.809 409.544 122.935 410.25 121.269C410.955 119.602 410.398 117.68 409.692 116.007C408.666 113.553 407.346 111.234 405.761 109.099C406.91 106.122 405.808 100.954 404.289 98.1451C398.161 86.8085 392.402 80.8545 374.002 80.8411" fill="#263238"/>
<path d="M354.185 89.3155C354.811 88.3103 355.794 87.5782 356.936 87.2655C358.078 86.9529 359.296 87.0826 360.347 87.6288L384.788 96.096C391.965 99.792 391.004 110.981 387.006 117.996C382.564 125.792 376.838 135.132 372.289 140.132C363.136 150.212 352.209 144.876 352.209 144.876L346.833 152.981L340.617 162.463C337.782 159.828 320.592 141.335 320.592 141.335L354.185 89.3155Z" fill="#FFBF9D"/>
<path d="M364.553 126.927C364.6 126.833 365.675 127.296 367.369 128.123C367.792 128.345 368.215 128.513 368.457 128.284C368.759 127.898 368.937 127.429 368.968 126.94C369.223 125.74 369.492 124.478 369.774 123.157C370.964 117.781 372.099 113.5 372.314 113.547C372.53 113.594 371.743 117.982 370.554 123.338C370.251 124.682 369.962 125.905 369.68 127.108C369.617 127.749 369.329 128.346 368.867 128.795C368.718 128.896 368.548 128.962 368.37 128.988C368.192 129.013 368.01 128.998 367.839 128.943C367.581 128.86 367.335 128.744 367.106 128.6C365.48 127.679 364.499 127.007 364.553 126.927Z" fill="#263238"/>
<path d="M352.209 144.87C352.209 144.87 345.718 141.51 341.182 132.102C341.182 132.102 337.506 141.651 349.635 148.747L352.209 144.87Z" fill="#FF9A6C"/>
<path d="M370.273 105.57C369.843 105.893 368.425 104.677 366.463 103.702C364.5 102.728 362.706 102.258 362.713 101.727C362.713 101.471 363.237 101.243 364.097 101.223C365.216 101.243 366.316 101.517 367.314 102.025C368.311 102.533 369.181 103.26 369.856 104.153C370.313 104.865 370.434 105.416 370.273 105.57Z" fill="#263238"/>
<path d="M384.848 115.758C384.344 115.933 383.504 114.864 382.24 114.004C380.977 113.144 379.72 112.66 379.707 112.156C379.707 111.908 380.117 111.666 380.816 111.646C381.717 111.65 382.593 111.937 383.322 112.465C384.069 112.974 384.64 113.702 384.955 114.549C385.17 115.207 385.056 115.664 384.848 115.758Z" fill="#263238"/>
<path d="M388.12 126.752C389.319 124.995 389.877 122.878 389.699 120.758C389.551 119.615 389.115 118.513 389.088 117.357C389.027 114.864 390.808 112.754 391.702 110.429C392.264 108.918 392.458 107.295 392.268 105.693C392.077 104.092 391.508 102.56 390.607 101.223C389.088 99.0185 386.702 97.4461 385.526 95.047C384.653 93.2729 384.511 91.1897 383.51 89.4761C381.608 86.1161 377.267 85.2022 373.43 84.8662C371.36 86.6134 371.414 89.4291 371.414 92.1373C371.431 93.4912 371.74 94.8255 372.32 96.049C372.9 97.2726 373.737 98.3565 374.774 99.2269C376.4 100.571 378.658 101.606 378.981 103.682C379.317 105.866 377.207 107.761 377.18 109.965C377.146 113.124 381.084 114.757 382.361 117.646C383.342 119.871 382.59 122.431 382.159 124.83C381.729 127.229 381.877 130.166 383.92 131.496C385.496 130.08 386.905 128.488 388.12 126.752Z" fill="#263238"/>
<path d="M374.903 91.8079C369.972 88.1355 364.377 85.454 358.425 83.912C356.658 83.455 354.743 83.1055 353.049 83.7977C351.564 84.4025 350.489 85.7062 349.562 87.0233C346.672 91.1292 344.71 97.3049 343.514 102.197L346.403 108.917C350.993 110.819 354.078 102.755 356.342 99.2268C358.156 99.5882 360.034 99.4334 361.764 98.78C363.493 98.1266 365.005 97.0009 366.126 95.5308C367.775 95.6127 369.422 95.3204 370.941 94.6756C372.461 94.0309 373.816 93.0505 374.903 91.8079Z" fill="#263238"/>
<path d="M347.425 107.405C348.957 104.959 346.417 102.439 343.548 102.197C341.975 102.063 340.188 102.768 338.555 105.349C334.173 112.217 341.975 115.207 342.116 115.012C342.257 114.817 345.631 110.261 347.425 107.405Z" fill="#FFBF9D"/>
<path d="M341.673 111.074C341.673 111.027 341.498 111.074 341.236 111.074C340.873 111.016 340.548 110.818 340.329 110.523C339.771 109.791 339.899 108.252 340.651 106.989C341.011 106.389 341.5 105.877 342.083 105.49C342.284 105.317 342.524 105.195 342.783 105.136C343.042 105.076 343.311 105.08 343.568 105.147C343.729 105.198 343.867 105.304 343.958 105.447C344.049 105.589 344.087 105.759 344.065 105.927C344.065 106.175 343.904 106.283 343.937 106.323C343.971 106.364 344.152 106.323 344.28 105.981C344.348 105.785 344.348 105.572 344.28 105.376C344.181 105.112 343.984 104.898 343.729 104.778C343.411 104.656 343.067 104.617 342.73 104.664C342.393 104.711 342.073 104.843 341.8 105.047C341.126 105.453 340.562 106.021 340.161 106.7C339.321 108.111 339.2 109.858 340.013 110.779C340.163 110.95 340.35 111.085 340.559 111.175C340.768 111.264 340.995 111.306 341.223 111.296C341.552 111.229 341.686 111.101 341.673 111.074Z" fill="#FF9A6C"/>
<path d="M338.93 113.32C338.93 113.32 338.93 113.32 338.849 113.393C338.769 113.466 338.679 113.528 338.581 113.575C338.189 113.768 337.741 113.816 337.317 113.709C336.641 113.565 336.003 113.281 335.442 112.876C335.081 112.628 334.744 112.347 334.434 112.036C334.071 111.692 333.765 111.293 333.527 110.853H333.635C333.142 111.348 332.529 111.707 331.856 111.894C331.183 112.081 330.473 112.09 329.795 111.92C329.118 111.75 328.496 111.406 327.991 110.924C327.486 110.441 327.115 109.836 326.915 109.167L327.042 109.227C326.625 109.38 326.164 109.363 325.759 109.18C325.35 108.995 325.002 108.697 324.758 108.32C324.494 107.923 324.369 107.451 324.401 106.976C324.434 106.497 324.589 106.034 324.852 105.632C325.398 104.816 326.214 104.219 327.157 103.945C328.123 103.681 329.118 103.534 330.12 103.508L330.026 103.67C329.876 103.299 329.806 102.901 329.82 102.502C329.834 102.102 329.931 101.71 330.107 101.351C330.448 100.603 331.002 99.9724 331.699 99.5368C332.422 99.1176 333.218 98.8415 334.045 98.7237C334.877 98.6046 335.717 98.5395 336.558 98.5288L336.444 98.6699C336.39 98.2447 336.428 97.8129 336.553 97.403C336.678 96.9931 336.888 96.6141 337.169 96.291C337.733 95.6111 338.486 95.115 339.333 94.8664C340.96 94.396 342.626 94.685 344.172 94.9403L344.037 95.021C344.357 94.2046 344.871 93.4788 345.536 92.9067C346.2 92.3347 346.994 91.9338 347.849 91.739C348.704 91.5442 349.593 91.5613 350.44 91.789C351.286 92.0167 352.064 92.448 352.706 93.0453L352.525 93.0856C352.827 92.4409 353.273 91.8742 353.829 91.4291C354.384 90.984 355.035 90.6725 355.73 90.5186C356.371 90.3515 357.04 90.3251 357.692 90.4411C358.344 90.5571 358.963 90.8128 359.507 91.1906H359.366C359.787 90.6395 360.327 90.1911 360.946 89.8791C361.565 89.5672 362.247 89.3998 362.941 89.3896C363.547 89.361 364.153 89.4551 364.723 89.6664C365.292 89.8778 365.813 90.2019 366.254 90.6194H366.126C366.596 90.0444 367.201 89.5943 367.887 89.309C368.479 89.0418 369.113 88.8781 369.761 88.8251C370.797 88.7104 371.841 88.9471 372.725 89.4971L372.98 89.6584C373.061 89.7189 373.135 89.7861 373.202 89.8466C373.336 89.9564 373.464 90.0731 373.585 90.196C373.769 90.3936 373.937 90.6048 374.089 90.8277C374.197 91.0091 374.277 91.1502 374.345 91.251L374.425 91.3989C374.387 91.3578 374.353 91.3127 374.324 91.2645L374.049 90.8546C373.893 90.6388 373.723 90.4344 373.538 90.243C373.418 90.1228 373.29 90.0106 373.155 89.907L372.933 89.7256L372.678 89.571C371.803 89.0566 370.783 88.8441 369.775 88.9663C369.142 89.0301 368.525 89.1981 367.947 89.4635C367.287 89.7384 366.707 90.1752 366.26 90.7336L366.2 90.8075L366.139 90.7403C365.714 90.3412 365.211 90.0329 364.662 89.8341C364.114 89.6354 363.53 89.5505 362.947 89.5845C362.276 89.6024 361.617 89.7747 361.023 90.0882C360.428 90.4017 359.914 90.8479 359.52 91.3922L359.46 91.4795L359.379 91.419C358.856 91.0648 358.263 90.828 357.64 90.7247C357.017 90.6215 356.379 90.6543 355.77 90.821C355.109 90.9684 354.49 91.2656 353.961 91.6896C353.432 92.1137 353.007 92.6533 352.72 93.267L352.652 93.4149L352.538 93.3074C351.921 92.7434 351.177 92.3374 350.369 92.1242C349.561 91.911 348.713 91.897 347.899 92.0833C347.084 92.2696 346.327 92.6507 345.692 93.194C345.056 93.7373 344.563 94.4264 344.252 95.2024V95.2965H344.152C342.606 95.0411 340.98 94.7656 339.448 95.2159C338.657 95.4546 337.956 95.9223 337.432 96.5599C337.171 96.8566 336.976 97.2053 336.86 97.583C336.744 97.9607 336.71 98.3587 336.76 98.7506V98.885H336.618C334.952 98.932 333.258 99.0194 331.881 99.8527C331.222 100.258 330.698 100.85 330.376 101.553C330.213 101.882 330.121 102.242 330.106 102.609C330.091 102.976 330.153 103.342 330.288 103.683L330.355 103.838H330.187C329.204 103.86 328.227 104.002 327.278 104.261C326.383 104.513 325.606 105.075 325.087 105.847C324.832 106.194 324.685 106.609 324.666 107.04C324.647 107.471 324.756 107.898 324.979 108.266C325.176 108.617 325.486 108.891 325.858 109.044C326.23 109.196 326.643 109.218 327.029 109.106L327.123 109.072L327.157 109.173C327.378 109.862 327.783 110.477 328.33 110.951C328.876 111.425 329.542 111.74 330.255 111.861C330.859 111.952 331.476 111.903 332.059 111.718C332.642 111.533 333.174 111.216 333.615 110.793L333.682 110.726L333.722 110.806C333.951 111.235 334.243 111.627 334.589 111.969C334.891 112.277 335.222 112.556 335.577 112.802C336.123 113.206 336.744 113.497 337.405 113.656C337.816 113.763 338.251 113.73 338.641 113.561C338.816 113.414 338.923 113.306 338.93 113.32Z" fill="#455A64"/>
<path d="M318.897 88.0923C318.888 87.8988 318.902 87.7048 318.938 87.5144C319.027 86.9601 319.229 86.4298 319.529 85.9554C319.998 85.1886 320.706 84.598 321.545 84.2754C322.109 84.0658 322.71 83.9761 323.311 84.0119C323.911 84.0478 324.498 84.2085 325.033 84.4837H324.925C325.516 83.2035 326.57 82.1949 327.875 81.6613C328.594 81.3522 329.371 81.201 330.153 81.2178C330.972 81.2939 331.782 81.4469 332.572 81.6747C332.977 81.771 333.394 81.8073 333.809 81.7823C334.229 81.7518 334.637 81.6229 334.998 81.4059C335.751 80.9893 336.383 80.3106 337.243 79.8939C338.146 79.4859 339.15 79.3581 340.127 79.527C341.103 79.6959 342.006 80.1538 342.72 80.8415H342.525C342.989 79.9571 343.65 79.1913 344.458 78.6034C345.265 78.0154 346.197 77.6211 347.181 77.4509C348.165 77.2807 349.175 77.3392 350.133 77.6218C351.091 77.9044 351.971 78.4036 352.706 79.0808H352.517C353.062 78.1308 353.868 77.357 354.84 76.8513C355.811 76.3455 356.907 76.1289 357.998 76.2272C359.089 76.3255 360.128 76.7346 360.994 77.406C361.859 78.0773 362.513 78.9828 362.88 80.0149L362.765 79.9477C363.88 79.7922 365.014 79.8793 366.092 80.2031C367.056 80.4739 367.982 80.8669 368.847 81.3723C370.263 82.1716 371.524 83.2186 372.57 84.4635C373.252 85.2493 373.802 86.1414 374.196 87.1045C374.301 87.3573 374.387 87.618 374.451 87.884C374.48 87.972 374.503 88.0618 374.519 88.1528C374.519 88.1528 374.411 87.7899 374.142 87.1314C373.724 86.1874 373.164 85.3127 372.483 84.5375C371.432 83.3199 370.174 82.2983 368.766 81.5202C367.91 81.0243 366.993 80.6425 366.038 80.3845C364.987 80.0784 363.883 79.9982 362.799 80.1493H362.718V80.0687C362.356 79.0847 361.721 78.2247 360.887 77.5897C360.052 76.9548 359.054 76.5713 358.009 76.4845C356.964 76.3976 355.916 76.611 354.989 77.0996C354.061 77.5881 353.292 78.3314 352.773 79.2421L352.699 79.3765L352.585 79.2757C351.876 78.6131 351.024 78.1238 350.094 77.8462C349.165 77.5685 348.183 77.5101 347.228 77.6755C346.272 77.8409 345.367 78.2256 344.585 78.7994C343.803 79.3732 343.164 80.1205 342.72 80.9826L342.639 81.1304L342.525 81.0095C341.846 80.3635 340.989 79.9353 340.064 79.7796C339.14 79.624 338.19 79.748 337.337 80.1359C336.524 80.5189 335.892 81.1909 335.099 81.6411C334.707 81.8691 334.268 82.0047 333.816 82.0376C333.382 82.0591 332.948 82.0183 332.525 81.9167C331.746 81.6918 330.947 81.5388 330.14 81.4597C329.386 81.4357 328.637 81.5755 327.942 81.8696C326.68 82.3726 325.653 83.3322 325.066 84.5576L325.026 84.6383L324.952 84.5979C324.438 84.3289 323.874 84.1697 323.296 84.1303C322.718 84.091 322.137 84.1724 321.592 84.3695C320.762 84.6698 320.054 85.234 319.576 85.9755C319.275 86.4378 319.065 86.9533 318.958 87.4943C318.911 87.8907 318.911 88.0923 318.897 88.0923Z" fill="#455A64"/>
<path d="M380.703 135.496C380.721 135.381 380.763 135.271 380.827 135.173C380.89 135.076 380.974 134.994 381.072 134.931C381.305 134.777 381.573 134.685 381.852 134.662C382.23 134.649 382.607 134.71 382.96 134.844C383.392 135.011 383.844 135.117 384.304 135.16C384.85 135.153 385.378 134.969 385.81 134.635C386.317 134.259 386.744 133.787 387.066 133.244C387.436 132.687 387.738 132.048 388.216 131.43C389.109 130.167 390.554 129.28 391.871 128.137C392.56 127.555 393.125 126.839 393.531 126.034C393.75 125.618 393.877 125.159 393.902 124.689C393.928 124.219 393.852 123.75 393.679 123.312C393.198 122.425 392.611 121.599 391.932 120.853C391.593 120.431 391.328 119.957 391.145 119.448C390.982 118.915 390.955 118.349 391.065 117.802C391.349 116.73 391.745 115.692 392.248 114.704C392.476 114.203 392.627 113.671 392.698 113.125C392.753 112.58 392.628 112.032 392.342 111.566C391.858 110.979 391.306 110.453 390.695 110C390.395 109.743 390.138 109.439 389.936 109.099C389.741 108.751 389.643 108.356 389.654 107.957C389.723 107.208 389.9 106.472 390.178 105.773C390.41 105.102 390.494 104.389 390.426 103.683C390.37 103.01 390.174 102.356 389.851 101.763C389.528 101.169 389.086 100.649 388.552 100.236C387.543 99.4643 386.281 99.1019 385.017 99.221H384.869V99.0731C385.078 97.9925 385.054 96.8797 384.8 95.809C384.545 94.7383 384.064 93.7342 383.391 92.8638C382.825 92.1401 382.124 91.533 381.328 91.0763C380.655 90.6811 379.918 90.4081 379.15 90.2699C378.066 90.0863 376.951 90.2169 375.938 90.6462C375.67 90.7552 375.412 90.8855 375.165 91.036L374.97 91.1368H374.896L374.957 91.0898L375.145 90.9688C375.39 90.8086 375.648 90.6714 375.918 90.5589C376.934 90.0925 378.066 89.9382 379.17 90.1154C379.957 90.2429 380.713 90.514 381.401 90.915C382.222 91.3745 382.945 91.9883 383.532 92.7227C384.228 93.612 384.726 94.6399 384.993 95.7375C385.259 96.835 385.288 97.9769 385.077 99.0866L384.956 98.9589C386.276 98.824 387.597 99.1964 388.652 100C389.22 100.429 389.693 100.971 390.04 101.593C390.387 102.214 390.601 102.901 390.668 103.609C390.738 104.345 390.651 105.087 390.413 105.786C390.145 106.465 389.971 107.177 389.896 107.903C389.906 108.266 389.998 108.621 390.164 108.943C390.33 109.266 390.567 109.546 390.856 109.765C391.489 110.225 392.059 110.768 392.55 111.377C392.863 111.891 392.999 112.493 392.94 113.091C392.873 113.663 392.716 114.221 392.476 114.744C391.981 115.717 391.589 116.74 391.307 117.795C391.197 118.301 391.221 118.826 391.374 119.32C391.547 119.806 391.799 120.26 392.12 120.664C392.812 121.425 393.406 122.269 393.887 123.178C394.088 123.648 394.169 124.16 394.122 124.67C394.078 125.16 393.943 125.639 393.726 126.081C393.308 126.911 392.725 127.647 392.012 128.245C390.668 129.4 389.23 130.261 388.357 131.484C387.92 132.088 387.577 132.72 387.201 133.285C386.848 133.839 386.392 134.32 385.857 134.703C385.398 135.047 384.838 135.232 384.264 135.227C383.802 135.183 383.349 135.07 382.92 134.891C382.579 134.753 382.213 134.685 381.845 134.689C381.576 134.703 381.315 134.784 381.086 134.924C380.893 135.062 380.757 135.265 380.703 135.496Z" fill="#455A64"/>
<path d="M400.895 134.534C400.886 134.476 400.886 134.417 400.895 134.359L400.983 133.855C401.063 133.405 401.184 132.76 401.339 131.933C401.493 131.107 401.708 130.085 401.843 128.889C402.054 127.547 401.881 126.173 401.345 124.924C401.023 124.252 400.546 123.58 400.122 122.908C399.899 122.541 399.725 122.145 399.605 121.732C399.477 121.296 399.459 120.834 399.551 120.388C399.733 119.481 400.284 118.695 400.546 117.808C400.68 117.37 400.68 116.902 400.546 116.464C400.381 116.007 400.143 115.58 399.84 115.201C399.519 114.797 399.235 114.365 398.993 113.91C398.757 113.42 398.677 112.868 398.765 112.331C399.059 111.287 399.493 110.288 400.055 109.361C400.305 108.888 400.453 108.369 400.492 107.835C400.5 107.57 400.455 107.306 400.36 107.058C400.266 106.81 400.123 106.583 399.941 106.391C399.202 105.578 398.053 105.208 397.199 104.375C396.778 103.938 396.503 103.382 396.413 102.782C396.345 102.208 396.345 101.629 396.413 101.055C396.46 100.49 396.52 99.9327 396.514 99.3884C396.52 98.857 396.393 98.3325 396.144 97.863C395.62 96.9289 394.585 96.4786 393.631 96.0822C392.629 95.7519 391.711 95.206 390.943 94.4828C390.303 93.7241 389.809 92.8539 389.485 91.9158C389.21 91.0371 388.852 90.1866 388.416 89.3756C387.458 88.0345 386.126 87.0059 384.586 86.4188C383.322 85.9208 381.962 85.7163 380.607 85.8207C379.586 85.9101 378.584 86.1572 377.637 86.5532C377.043 86.8123 376.471 87.1226 375.93 87.4805L375.5 87.7494L375.346 87.8367L375.487 87.7292L375.903 87.4335C376.439 87.0589 377.008 86.7349 377.604 86.4658C378.555 86.0477 379.567 85.7824 380.601 85.6796C381.971 85.5617 383.351 85.7594 384.633 86.2575C386.211 86.8483 387.579 87.8936 388.564 89.2614C389.044 90.0579 389.445 90.8997 389.76 91.7746C390.08 92.6851 390.563 93.5298 391.185 94.2678C391.926 94.9593 392.809 95.482 393.772 95.7999C394.271 95.9982 394.754 96.2341 395.217 96.5055C395.714 96.784 396.125 97.1941 396.405 97.6907C396.685 98.1874 396.822 98.7515 396.803 99.3212C396.802 99.887 396.77 100.452 396.709 101.015C396.641 101.568 396.641 102.128 396.709 102.681C396.785 103.231 397.034 103.742 397.421 104.139C398.214 104.939 399.363 105.309 400.169 106.155C400.579 106.593 400.799 107.176 400.781 107.775C400.742 108.341 400.584 108.893 400.317 109.394C399.854 110.389 399.215 111.29 399.047 112.298C398.963 112.791 399.036 113.299 399.255 113.749C399.488 114.191 399.761 114.612 400.069 115.006C400.392 115.407 400.642 115.862 400.808 116.35C400.959 116.833 400.959 117.351 400.808 117.835C400.526 118.769 399.981 119.542 399.807 120.395C399.674 121.232 399.866 122.088 400.344 122.787C400.747 123.5 401.231 124.131 401.56 124.844C402.093 126.117 402.258 127.514 402.038 128.876C401.89 130.079 401.648 131.093 401.487 131.927C401.325 132.76 401.177 133.385 401.083 133.842C401.036 134.05 401.003 134.211 400.976 134.339C400.957 134.407 400.93 134.473 400.895 134.534Z" fill="#455A64"/>
<path d="M398.867 122.553L399.001 122.62C399.126 122.704 399.227 122.817 399.297 122.949C399.402 123.218 399.44 123.509 399.407 123.796C399.374 124.083 399.272 124.357 399.109 124.596C398.865 124.926 398.578 125.222 398.255 125.476C397.876 125.768 397.539 126.112 397.254 126.497C396.984 126.97 396.843 127.505 396.844 128.05C396.844 128.634 396.844 129.259 396.777 129.925C396.752 130.282 396.646 130.629 396.467 130.938C396.288 131.248 396.04 131.513 395.742 131.712C395.124 132.122 394.398 132.297 393.76 132.72C393.148 133.201 392.743 133.899 392.631 134.669C392.449 135.455 392.396 136.309 392.16 137.162C392.052 137.601 391.862 138.015 391.603 138.385C391.322 138.756 390.967 139.065 390.561 139.292C389.722 139.698 388.847 140.024 387.947 140.267C387.04 140.501 386.254 141.067 385.743 141.853C385.361 142.751 385.088 143.692 384.93 144.655C384.804 145.153 384.59 145.624 384.298 146.046C383.987 146.453 383.587 146.784 383.129 147.014C382.239 147.395 381.307 147.673 380.353 147.84C379.456 148.012 378.604 148.364 377.847 148.875C377.161 149.445 376.436 149.966 375.676 150.434C375.286 150.65 374.851 150.769 374.406 150.783C373.978 150.783 373.552 150.708 373.149 150.562C372.773 150.428 372.39 150.316 372 150.226C371.623 150.164 371.239 150.153 370.858 150.192C370.135 150.312 369.43 150.524 368.761 150.824C368.089 151.099 367.471 151.375 366.839 151.583C365.696 151.963 364.461 151.963 363.318 151.583C362.458 151.315 361.67 150.855 361.013 150.239C360.599 149.849 360.25 149.395 359.978 148.895C359.883 148.723 359.802 148.543 359.736 148.358C360.071 149.035 360.526 149.645 361.08 150.158C361.735 150.752 362.513 151.193 363.358 151.449C364.479 151.792 365.679 151.768 366.786 151.382C367.404 151.173 368.022 150.898 368.687 150.615C369.371 150.298 370.094 150.072 370.838 149.943C371.234 149.886 371.637 149.886 372.034 149.943C372.433 150.031 372.825 150.143 373.21 150.279C373.591 150.418 373.994 150.488 374.399 150.488C374.811 150.47 375.214 150.357 375.575 150.158C376.322 149.689 377.036 149.171 377.712 148.606C378.491 148.077 379.369 147.712 380.293 147.531C381.217 147.362 382.119 147.087 382.981 146.711C383.406 146.502 383.777 146.196 384.063 145.817C384.34 145.424 384.541 144.982 384.654 144.514C384.818 143.529 385.1 142.568 385.494 141.651C385.742 141.215 386.092 140.845 386.516 140.576C386.937 140.315 387.388 140.108 387.86 139.958C388.74 139.745 389.601 139.46 390.433 139.104C390.809 138.889 391.138 138.601 391.401 138.257C391.645 137.909 391.824 137.52 391.932 137.108C392.16 136.288 392.214 135.442 392.402 134.635C392.532 133.813 392.972 133.072 393.632 132.566C394.304 132.115 395.043 131.947 395.648 131.564C395.925 131.382 396.156 131.139 396.323 130.854C396.491 130.568 396.591 130.248 396.616 129.918C396.696 129.286 396.656 128.655 396.696 128.063C396.703 127.492 396.861 126.934 397.153 126.444C397.446 126.05 397.795 125.701 398.188 125.409C398.511 125.168 398.799 124.883 399.042 124.562C399.203 124.337 399.307 124.077 399.346 123.803C399.384 123.529 399.356 123.25 399.263 122.99C399.176 122.809 399.038 122.657 398.867 122.553Z" fill="#455A64"/>
<path d="M358.216 125.711C358.461 125.565 358.752 125.518 359.03 125.581C359.307 125.643 359.55 125.81 359.708 126.047C360.716 127.546 361.724 129.044 362.739 130.55L363.082 131.047C362.267 131.749 361.363 132.341 360.394 132.807C359.973 133.003 359.514 133.104 359.05 133.104C358.585 133.104 358.127 133.003 357.706 132.807C357.063 132.409 356.564 131.816 356.281 131.114C355.817 129.978 355.441 128.816 355.959 127.707C356.335 126.894 357.504 126.168 358.216 125.711Z" fill="#FF9A6C"/>
<path d="M335.813 109.415C335.358 109.291 334.886 109.243 334.415 109.273C333.107 109.332 331.863 109.856 330.907 110.752C330.24 111.36 329.722 112.114 329.395 112.956C329.037 113.928 328.913 114.971 329.032 116C329.157 117.141 329.571 118.23 330.235 119.165C330.957 120.172 331.967 120.935 333.132 121.356C334.289 121.788 335.544 121.886 336.754 121.638C337.882 121.405 338.919 120.85 339.737 120.039C340.428 119.359 340.953 118.53 341.272 117.616C341.592 116.701 341.696 115.725 341.579 114.764C341.452 114.032 341.18 113.332 340.779 112.707C340.488 112.233 340.133 111.801 339.724 111.424C339.463 111.187 339.169 110.99 338.85 110.839C338.743 110.779 338.624 110.742 338.501 110.732C338.922 110.926 339.306 111.192 339.637 111.518C340.54 112.402 341.144 113.546 341.364 114.791C341.461 115.715 341.347 116.65 341.03 117.524C340.714 118.398 340.203 119.189 339.536 119.837C338.753 120.602 337.766 121.125 336.693 121.343C335.538 121.57 334.342 121.472 333.239 121.06C332.134 120.662 331.174 119.941 330.484 118.991C329.844 118.098 329.442 117.057 329.315 115.967C329.193 114.98 329.303 113.979 329.637 113.043C329.941 112.235 330.426 111.506 331.055 110.913C331.97 110.04 333.155 109.504 334.415 109.394C335.329 109.334 335.806 109.455 335.813 109.415Z" fill="#E0E0E0"/>
<path d="M363.021 114.704C362.772 115.093 362.381 115.368 361.931 115.471C361.481 115.574 361.008 115.497 360.615 115.255C360.416 115.148 360.24 115.002 360.097 114.826C359.955 114.651 359.85 114.448 359.787 114.231C359.724 114.013 359.706 113.786 359.733 113.561C359.759 113.336 359.831 113.119 359.943 112.923C360.193 112.535 360.584 112.261 361.034 112.158C361.483 112.055 361.955 112.132 362.349 112.372C362.55 112.477 362.727 112.622 362.87 112.798C363.014 112.974 363.12 113.176 363.183 113.394C363.245 113.612 363.263 113.841 363.236 114.066C363.208 114.291 363.135 114.508 363.021 114.704Z" fill="#263238"/>
<path d="M377.066 124.508C376.815 124.894 376.424 125.167 375.975 125.27C375.526 125.373 375.054 125.297 374.66 125.059C374.461 124.951 374.285 124.805 374.142 124.629C374 124.452 373.894 124.249 373.832 124.031C373.769 123.813 373.751 123.585 373.778 123.36C373.805 123.135 373.876 122.917 373.988 122.72C374.239 122.334 374.631 122.061 375.08 121.958C375.529 121.855 376 121.931 376.394 122.169C376.594 122.277 376.77 122.423 376.912 122.599C377.055 122.776 377.16 122.979 377.223 123.197C377.285 123.415 377.304 123.643 377.277 123.868C377.25 124.093 377.178 124.311 377.066 124.508Z" fill="#263238"/>
<path d="M381.085 120.637C380.796 120.758 380.239 119.219 378.72 118.359C377.201 117.499 375.595 117.761 375.555 117.445C375.555 117.304 375.918 117.015 376.63 116.881C377.549 116.713 378.498 116.876 379.308 117.343C380.118 117.809 380.736 118.548 381.052 119.428C381.287 120.113 381.226 120.59 381.085 120.637Z" fill="#263238"/>
<path d="M366.818 112.083C366.462 112.163 365.937 110.355 364.231 109.146C362.524 107.936 360.642 107.97 360.615 107.614C360.615 107.446 361.072 107.19 361.919 107.15C363.026 107.122 364.111 107.457 365.01 108.104C365.902 108.744 366.555 109.665 366.865 110.718C367.087 111.552 366.979 112.049 366.818 112.083Z" fill="#263238"/>
<path d="M359.022 132.942C359.022 132.942 358.78 133.036 358.35 132.942C357.719 132.789 357.151 132.444 356.724 131.954C356.072 131.249 355.639 130.368 355.481 129.421C355.378 128.841 355.444 128.244 355.669 127.7C355.928 127.135 356.311 126.637 356.791 126.242C357.251 125.86 357.754 125.533 358.29 125.268C358.439 125.175 358.606 125.116 358.78 125.094C358.954 125.072 359.131 125.087 359.298 125.14C359.589 125.286 359.824 125.521 359.97 125.812L361.421 128.124C361.899 128.826 362.298 129.579 362.611 130.368C362.022 129.756 361.503 129.08 361.065 128.352C360.581 127.68 360.064 126.907 359.513 126.108C359.217 125.624 359.002 125.51 358.518 125.772C358.023 126.027 357.556 126.336 357.127 126.692C356.713 126.997 356.386 127.407 356.18 127.879C355.975 128.351 355.898 128.869 355.958 129.38C356.09 130.24 356.447 131.049 356.993 131.726C357.359 132.189 357.841 132.546 358.391 132.761C358.78 132.888 359.029 132.895 359.022 132.942Z" fill="#263238"/>
<path d="M419.899 106.801C419.644 105.98 419.292 105.193 418.85 104.456C418.301 103.62 417.599 102.895 416.781 102.319C415.705 101.56 414.444 101.107 413.132 101.008H412.923V100.793C413.052 99.0487 412.495 97.3225 411.371 95.9819C410.756 95.1911 409.974 94.5461 409.081 94.093C408.187 93.6399 407.205 93.3899 406.203 93.3611H405.941V93.099C405.885 90.2861 404.753 87.6019 402.776 85.5995C401.229 84.05 399.237 83.0213 397.078 82.6561C395.105 82.3133 393.076 82.5179 391.211 83.2475L391.09 83.2945L390.976 83.2206C389.082 81.9507 386.945 81.0901 384.699 80.6939C382.952 80.3706 381.166 80.323 379.404 80.5528C377.854 80.7886 376.331 81.1827 374.861 81.7288C374.861 81.7288 374.949 81.6616 375.137 81.5675C375.325 81.4734 375.607 81.3256 375.984 81.1777C377.066 80.7486 378.193 80.4399 379.344 80.2571C381.135 79.9677 382.962 79.9677 384.753 80.2571C387.068 80.634 389.278 81.4949 391.238 82.7838H391.003C392.948 81.9941 395.075 81.7614 397.145 82.1118C399.419 82.4802 401.519 83.5573 403.146 85.1896C405.226 87.2902 406.412 90.1158 406.452 93.0721L406.19 92.8101C407.267 92.8466 408.323 93.121 409.281 93.6136C410.24 94.1063 411.077 94.8049 411.734 95.6593C412.923 97.096 413.502 98.9415 413.347 100.8L413.159 100.578C414.54 100.697 415.861 101.203 416.969 102.037C417.805 102.649 418.509 103.424 419.039 104.315C419.373 104.874 419.627 105.478 419.791 106.109C419.853 106.335 419.889 106.567 419.899 106.801Z" fill="#263238"/>
<path d="M376.852 72.1724C376.156 72.0545 375.495 71.7837 374.916 71.3795C374.094 70.8493 373.386 70.16 372.835 69.3522C372.283 68.5443 371.899 67.6342 371.704 66.6755C371.438 65.317 371.595 63.9098 372.154 62.6435C372.789 61.1814 373.868 59.9564 375.239 59.1423C376.793 58.2662 378.624 58.0231 380.353 58.4636C382.243 58.9037 383.884 60.0695 384.922 61.7094L384.62 61.5817C385.798 61.3029 387.037 61.4382 388.128 61.9647C389.062 62.3853 389.86 63.0578 390.433 63.9068C390.962 64.7431 391.224 65.7203 391.185 66.7091C391.161 67.6391 390.897 68.5471 390.421 69.3461C389.944 70.1451 389.27 70.8083 388.464 71.2719L388.363 70.7881C389.089 70.8729 389.783 71.1349 390.384 71.5508C390.985 71.9668 391.475 72.5241 391.81 73.1737C392.13 73.7506 392.321 74.3893 392.372 75.0467C392.423 75.7041 392.332 76.3647 392.106 76.9839C391.732 77.9865 391.094 78.8689 390.258 79.5375C389.423 80.206 388.422 80.6357 387.362 80.7807C385.988 80.9661 384.59 80.7588 383.33 80.1827C382.998 80.04 382.678 79.8692 382.375 79.6719C382.174 79.5308 382.073 79.4569 382.08 79.4435C382.086 79.43 382.523 79.6988 383.39 80.0281C384.625 80.5185 385.968 80.6693 387.281 80.4649C388.269 80.3094 389.197 79.8912 389.968 79.254C390.739 78.6167 391.324 77.7839 391.662 76.8428C391.86 76.2818 391.935 75.6847 391.882 75.0922C391.828 74.4997 391.648 73.9256 391.353 73.4089C391.053 72.8341 390.617 72.3413 390.083 71.9736C389.549 71.6058 388.933 71.3742 388.289 71.2988L387.422 71.2316L388.182 70.815C388.904 70.3926 389.507 69.7924 389.933 69.0714C390.359 68.3505 390.593 67.5327 390.614 66.6956C390.644 65.8161 390.41 64.9478 389.942 64.2025C389.441 63.4498 388.744 62.8481 387.926 62.462C386.951 61.9906 385.843 61.8673 384.788 62.1126L384.593 62.1663L384.486 61.9916C383.527 60.4733 382.012 59.3903 380.265 58.9743C378.658 58.5589 376.953 58.7829 375.508 59.5993C374.214 60.3508 373.187 61.488 372.571 62.8518C372.033 64.0307 371.864 65.345 372.087 66.6217C372.439 68.4795 373.502 70.1265 375.051 71.2115C375.617 71.591 376.221 71.9129 376.852 72.1724Z" fill="#263238"/>
<path d="M333.084 66.6419C333.086 66.5256 333.104 66.4103 333.138 66.2991C333.212 65.9755 333.313 65.6586 333.44 65.3516C333.913 64.1803 334.638 63.1273 335.564 62.2671C336.976 60.9215 338.807 60.1008 340.752 59.942C341.982 59.8487 343.218 60.0073 344.385 60.4083C345.553 60.8092 346.625 61.444 347.539 62.2739L347.236 62.2335C349.527 61.0231 352.176 60.6749 354.702 61.2524C356.605 61.7027 358.343 62.6756 359.722 64.0614C360.98 65.3249 361.903 66.8814 362.41 68.5907L362.202 68.4159C364.199 68.6957 366.092 69.4771 367.705 70.6873C368.956 71.6161 370.021 72.7719 370.844 74.0943C371.376 74.9476 371.787 75.8703 372.067 76.8361C372.174 77.1746 372.244 77.5239 372.275 77.8777C371.862 76.6061 371.296 75.3898 370.588 74.2556C369.754 72.9951 368.695 71.8993 367.464 71.0233C365.893 69.8869 364.064 69.1594 362.141 68.9065H361.98L361.933 68.7519C361.432 67.132 360.542 65.6598 359.339 64.4646C358.035 63.1422 356.387 62.2111 354.581 61.7766C352.183 61.2275 349.668 61.5491 347.485 62.6838L347.317 62.7711L347.183 62.6435C346.323 61.8554 345.314 61.2487 344.214 60.8596C343.115 60.4705 341.949 60.307 340.785 60.3788C338.929 60.506 337.169 61.2512 335.785 62.4956C334.868 63.3073 334.125 64.2973 333.601 65.4054C333.239 66.1983 333.124 66.6553 333.084 66.6419Z" fill="#263238"/>
<path d="M291.883 117.116C291.883 117.116 292.609 115.826 298.206 116.558C303.804 117.291 325.98 132.646 325.98 132.646C325.98 132.646 321.948 148.512 334.145 151.536C343.029 153.74 347.739 151.26 347.739 151.26C347.739 151.26 362.611 169.754 363.827 177.293C363.827 177.293 292.158 227.438 303.791 221.988L291.883 222.123V117.116Z" fill="#3975EB"/>
<path d="M362.666 173.9C362.861 174.431 365.636 177.738 362.888 192.468C360.388 205.847 349.448 219.348 349.448 219.348L327.635 199.719L362.666 173.9Z" fill="#3975EB"/>
<path d="M351.287 184.39C351.187 184.511 351.075 184.621 350.951 184.719L349.95 185.593C349.063 186.338 347.773 187.407 346.153 188.697C342.921 191.278 338.405 194.779 333.385 198.596C328.365 202.413 323.776 205.833 320.449 208.32L316.498 211.209L315.409 211.982C315.29 212.08 315.159 212.164 315.02 212.231C315.127 212.12 315.244 212.018 315.369 211.928L316.417 211.102L320.301 208.125L333.17 198.347C338.197 194.53 342.733 191.063 345.999 188.529L349.863 185.512L350.904 184.692C351.023 184.58 351.151 184.479 351.287 184.39Z" fill="#263238"/>
<path d="M315.02 57.6846H156.287V278.309H315.02V57.6846Z" fill="white"/>
<path d="M315.02 57.6846H156.287V137.538H315.02V57.6846Z" fill="#3975EB"/>
<path d="M298.482 64.082H270.272C266.085 64.082 262.691 67.4758 262.691 71.6622V72.4484C262.691 76.6348 266.085 80.0286 270.272 80.0286H298.482C302.669 80.0286 306.062 76.6348 306.062 72.4484V71.6622C306.062 67.4758 302.669 64.082 298.482 64.082Z" fill="#263238"/>
<path d="M287.535 157.094C287.535 157.188 265.708 157.268 238.802 157.268C211.895 157.268 190.055 157.188 190.055 157.094C190.055 157 211.875 156.919 238.802 156.919C265.729 156.919 287.535 156.993 287.535 157.094Z" fill="#263238"/>
<path d="M287.535 178.598C287.535 178.692 265.708 178.772 238.802 178.772C211.895 178.772 190.055 178.692 190.055 178.598C190.055 178.503 211.875 178.423 238.802 178.423C265.729 178.423 287.535 178.503 287.535 178.598Z" fill="#263238"/>
<path d="M287.535 200.108C287.535 200.202 265.708 200.283 238.802 200.283C211.895 200.283 190.055 200.202 190.055 200.108C190.055 200.014 211.875 199.934 238.802 199.934C265.729 199.934 287.535 200.008 287.535 200.108Z" fill="#263238"/>
<path d="M287.133 224.898H191.783C182.408 224.898 174.809 232.498 174.809 241.873V243.654C174.809 253.029 182.408 260.629 191.783 260.629H287.133C296.508 260.629 304.108 253.029 304.108 243.654V241.873C304.108 232.498 296.508 224.898 287.133 224.898Z" fill="#3975EB"/>
<path d="M197.79 125.187C197.091 125.025 196.426 124.738 195.828 124.34L196.809 122.143C197.319 122.472 197.873 122.725 198.456 122.895C199.052 123.082 199.672 123.179 200.297 123.184C201.439 123.184 202.017 122.895 202.017 122.324C202.016 122.175 201.968 122.03 201.88 121.909C201.792 121.789 201.669 121.699 201.527 121.652C201.016 121.449 200.487 121.294 199.947 121.189C199.263 121.056 198.589 120.872 197.931 120.638C197.401 120.445 196.927 120.121 196.554 119.697C196.154 119.205 195.951 118.582 195.983 117.95C195.974 117.326 196.16 116.716 196.514 116.202C196.908 115.649 197.454 115.222 198.086 114.973C198.905 114.65 199.78 114.496 200.66 114.522C201.35 114.523 202.037 114.602 202.709 114.758C203.334 114.888 203.935 115.114 204.49 115.43L203.57 117.647C202.679 117.135 201.674 116.855 200.646 116.834C200.198 116.801 199.749 116.891 199.349 117.096C199.228 117.162 199.125 117.258 199.053 117.377C198.981 117.495 198.942 117.63 198.939 117.768C198.942 117.911 198.991 118.05 199.078 118.163C199.165 118.277 199.286 118.36 199.423 118.4C199.926 118.594 200.446 118.742 200.976 118.843C201.66 118.976 202.334 119.158 202.992 119.388C203.507 119.591 203.968 119.914 204.336 120.328C204.744 120.813 204.951 121.436 204.914 122.069C204.92 122.683 204.737 123.283 204.389 123.789C203.986 124.339 203.436 124.765 202.803 125.019C201.987 125.343 201.114 125.499 200.236 125.476C199.412 125.485 198.59 125.388 197.79 125.187Z" fill="white"/>
<path d="M208.427 117.103H205.182V114.73H214.643V117.103H211.411V125.294H208.427V117.103Z" fill="white"/>
<path d="M222.304 123.244H217.842L217.009 125.26H213.965L218.622 114.696H221.565L226.269 125.26H223.165L222.304 123.244ZM221.431 121.04L220.087 117.68L218.743 121.04H221.431Z" fill="white"/>
<path d="M237.136 114.73V125.294H234.677L230.013 119.67V125.294H227.09V114.73H229.549L234.206 120.362V114.73H237.136Z" fill="white"/>
<path d="M239.232 114.73H244.225C245.289 114.718 246.341 114.948 247.303 115.402C248.161 115.801 248.885 116.44 249.386 117.243C249.871 118.093 250.125 119.054 250.125 120.032C250.125 121.01 249.871 121.971 249.386 122.821C248.887 123.625 248.163 124.265 247.303 124.662C246.342 125.119 245.289 125.349 244.225 125.334H239.232V114.73ZM244.104 122.908C244.904 122.946 245.687 122.671 246.288 122.142C246.815 121.559 247.107 120.801 247.107 120.015C247.107 119.229 246.815 118.471 246.288 117.888C245.69 117.354 244.906 117.077 244.104 117.116H242.223V122.908H244.104Z" fill="white"/>
<path d="M258.632 123.244H254.17L253.337 125.26H250.293L254.95 114.696H257.893L262.597 125.26H259.459L258.632 123.244ZM257.759 121.04L256.415 117.68L255.071 121.04H257.759Z" fill="white"/>
<path d="M268.034 122.485H266.401V125.294H263.424V114.73H268.249C269.102 114.712 269.949 114.874 270.735 115.207C271.41 115.485 271.982 115.964 272.377 116.578C272.771 117.192 272.967 117.912 272.939 118.641C272.972 119.343 272.792 120.039 272.425 120.638C272.057 121.237 271.517 121.712 270.876 122.001L273.154 125.321H269.956L268.034 122.485ZM269.452 117.492C269.051 117.196 268.557 117.054 268.061 117.089H266.401V120.18H268.061C268.557 120.215 269.051 120.072 269.452 119.777C269.609 119.634 269.733 119.458 269.813 119.262C269.894 119.065 269.929 118.853 269.915 118.641C269.93 118.429 269.897 118.216 269.821 118.017C269.744 117.819 269.625 117.639 269.472 117.492H269.452Z" fill="white"/>
<path d="M274.58 114.73H279.553C280.616 114.718 281.669 114.948 282.631 115.402C283.488 115.803 284.211 116.442 284.714 117.243C285.198 118.093 285.453 119.054 285.453 120.032C285.453 121.01 285.198 121.971 284.714 122.821C284.213 123.624 283.489 124.263 282.631 124.662C281.67 125.119 280.617 125.349 279.553 125.334H274.58V114.73ZM279.452 122.908C280.25 122.948 281.032 122.673 281.629 122.142C282.161 121.561 282.455 120.802 282.455 120.015C282.455 119.228 282.161 118.469 281.629 117.888C281.034 117.353 280.251 117.076 279.452 117.116H277.537V122.908H279.452Z" fill="white"/>
<path d="M276.192 70.17C276.387 70.2617 276.56 70.3929 276.701 70.5554C276.842 70.7179 276.948 70.908 277.011 71.1136C277.074 71.3191 277.094 71.5356 277.068 71.7492C277.043 71.9628 276.974 72.1688 276.864 72.354C276.699 72.5948 276.465 72.7799 276.192 72.8849C275.883 73.0179 275.548 73.0821 275.211 73.073H274.351V74.249H273.363V69.9818H275.211C275.548 69.976 275.882 70.04 276.192 70.17ZM275.83 72.0785C275.908 72.0118 275.97 71.928 276.01 71.8336C276.051 71.7393 276.07 71.6368 276.065 71.5341C276.072 71.4292 276.054 71.3241 276.013 71.2273C275.973 71.1304 275.91 71.0445 275.83 70.9764C275.634 70.8377 275.397 70.7712 275.158 70.7882H274.358V72.2666H275.158C275.39 72.2789 275.619 72.2126 275.809 72.0785H275.83Z" fill="white"/>
<path d="M278.302 74.0809C278.025 73.9506 277.791 73.7429 277.63 73.4828C277.476 73.2175 277.395 72.9161 277.395 72.6092C277.395 72.3024 277.476 72.001 277.63 71.7356C277.793 71.4773 278.026 71.2701 278.302 71.1376C278.59 70.9963 278.908 70.9229 279.229 70.9229C279.55 70.9229 279.868 70.9963 280.156 71.1376C280.358 71.2442 280.535 71.3904 280.679 71.5674C280.822 71.7443 280.928 71.9483 280.991 72.1673C281.054 72.3862 281.072 72.6156 281.044 72.8416C281.016 73.0677 280.943 73.2858 280.828 73.4828C280.666 73.7419 280.433 73.9493 280.156 74.0809C279.868 74.2222 279.55 74.2956 279.229 74.2956C278.908 74.2956 278.59 74.2222 278.302 74.0809ZM279.827 73.2678C279.986 73.0798 280.073 72.8418 280.073 72.5958C280.073 72.3498 279.986 72.1117 279.827 71.9238C279.751 71.8419 279.658 71.7773 279.555 71.7344C279.452 71.6915 279.341 71.6713 279.229 71.6752C279.116 71.6716 279.004 71.692 278.9 71.7348C278.796 71.7777 278.702 71.8421 278.624 71.9238C278.466 72.1117 278.378 72.3498 278.378 72.5958C278.378 72.8418 278.466 73.0798 278.624 73.2678C278.702 73.3495 278.796 73.4139 278.9 73.4568C279.004 73.4996 279.116 73.5199 279.229 73.5164C279.342 73.5178 279.454 73.4944 279.558 73.448C279.661 73.4016 279.753 73.3332 279.827 73.2476V73.2678Z" fill="white"/>
<path d="M284.431 71.1311C284.681 71.2669 284.886 71.4723 285.022 71.7225C285.164 71.9968 285.237 72.3009 285.237 72.6095C285.237 72.9181 285.164 73.2223 285.022 73.4966C284.886 73.7467 284.681 73.9521 284.431 74.0879C284.178 74.229 283.893 74.3009 283.604 74.2963C283.42 74.3079 283.236 74.2783 283.065 74.2098C282.895 74.1412 282.741 74.0353 282.616 73.8998V75.4319H281.662V70.9699H282.569V71.3462C282.698 71.2013 282.858 71.0879 283.038 71.0145C283.217 70.9411 283.411 70.9097 283.604 70.9228C283.893 70.9182 284.178 70.99 284.431 71.1311ZM284.034 73.2681C284.193 73.0801 284.28 72.8421 284.28 72.5961C284.28 72.3501 284.193 72.112 284.034 71.9241C283.876 71.7657 283.66 71.6767 283.436 71.6767C283.212 71.6767 282.997 71.7657 282.838 71.9241C282.679 72.112 282.592 72.3501 282.592 72.5961C282.592 72.8421 282.679 73.0801 282.838 73.2681C282.997 73.4265 283.212 73.5155 283.436 73.5155C283.66 73.5155 283.876 73.4265 284.034 73.2681Z" fill="white"/>
<path d="M289.175 70.9696V74.249H288.288V73.8592C288.164 74.0002 288.01 74.1125 287.838 74.1885C287.659 74.2621 287.467 74.2987 287.273 74.296C287.086 74.3058 286.899 74.2782 286.722 74.2147C286.546 74.1513 286.383 74.0533 286.245 73.9264C286.112 73.7771 286.01 73.6027 285.946 73.4134C285.881 73.2241 285.855 73.0238 285.869 72.8243V70.9696H286.823V72.6832C286.823 73.2141 287.045 73.4762 287.495 73.4762C287.596 73.4801 287.697 73.4623 287.791 73.424C287.885 73.3858 287.97 73.328 288.039 73.2544C288.194 73.0665 288.269 72.8251 288.248 72.5824V70.9629L289.175 70.9696Z" fill="white"/>
<path d="M290.057 69.7266H291.011V74.2491H290.057V69.7266Z" fill="white"/>
<path d="M294.384 71.2851C294.53 71.425 294.643 71.5962 294.714 71.7858C294.785 71.9755 294.813 72.1788 294.794 72.3804V74.2486H293.907V73.8387C293.798 73.9991 293.647 74.1265 293.47 74.207C293.294 74.2876 293.098 74.3182 292.906 74.2956C292.675 74.304 292.445 74.2604 292.234 74.168C292.063 74.0935 291.916 73.9724 291.81 73.8185C291.713 73.6635 291.662 73.4841 291.662 73.3011C291.659 73.162 291.688 73.024 291.749 72.8989C291.81 72.7737 291.9 72.6651 292.012 72.582C292.329 72.3838 292.701 72.2919 293.074 72.32H293.826C293.831 72.2316 293.817 72.1431 293.785 72.0607C293.752 71.9783 293.702 71.904 293.638 71.8428C293.476 71.7211 293.276 71.6615 293.074 71.6748C292.897 71.6739 292.722 71.7034 292.556 71.7622C292.401 71.8095 292.255 71.8846 292.126 71.984L291.79 71.312C291.985 71.1778 292.2 71.0778 292.429 71.0163C292.681 70.949 292.94 70.9151 293.201 70.9155C293.628 70.8848 294.051 71.0169 294.384 71.2851ZM293.578 73.543C293.703 73.4696 293.796 73.3522 293.84 73.2137V72.8777H293.168C292.778 72.8777 292.583 73.0054 292.583 73.2608C292.581 73.3176 292.593 73.3741 292.619 73.4247C292.645 73.4754 292.683 73.5184 292.731 73.5497C292.845 73.6287 292.982 73.6666 293.121 73.6572C293.281 73.6659 293.44 73.6261 293.578 73.543Z" fill="white"/>
<path d="M297.024 71.0432C297.238 70.9589 297.466 70.9178 297.696 70.9222V71.7958H297.481C297.364 71.789 297.248 71.8058 297.138 71.845C297.028 71.8843 296.928 71.9453 296.842 72.0243C296.76 72.1146 296.696 72.2208 296.656 72.3362C296.616 72.4517 296.599 72.5742 296.607 72.6963V74.2419H295.68V70.9625H296.587V71.3926C296.7 71.2403 296.85 71.1199 297.024 71.0432Z" fill="white"/>
<path d="M215.236 246.382C214.447 245.964 213.789 245.336 213.334 244.568C212.876 243.772 212.635 242.869 212.635 241.95C212.635 241.032 212.876 240.129 213.334 239.333C213.791 238.568 214.449 237.943 215.236 237.525C216.013 237.133 216.865 236.913 217.734 236.878C218.603 236.843 219.47 236.995 220.276 237.324C220.948 237.61 221.543 238.052 222.01 238.614L220.551 239.958C220.251 239.593 219.874 239.301 219.446 239.102C219.018 238.903 218.55 238.803 218.078 238.809C217.51 238.799 216.95 238.938 216.452 239.212C215.982 239.47 215.595 239.857 215.337 240.327C215.076 240.83 214.94 241.388 214.94 241.954C214.94 242.52 215.076 243.077 215.337 243.58C215.597 244.049 215.983 244.435 216.452 244.695C216.95 244.967 217.511 245.104 218.078 245.092C218.551 245.099 219.02 244.999 219.448 244.799C219.876 244.599 220.254 244.304 220.551 243.936L222.01 245.28C221.542 245.848 220.945 246.295 220.269 246.584C219.535 246.89 218.746 247.043 217.951 247.034C217.006 247.045 216.073 246.821 215.236 246.382Z" fill="white"/>
<path d="M230.235 240.044C230.543 240.379 230.779 240.774 230.928 241.204C231.077 241.634 231.136 242.09 231.102 242.544V246.865H228.911V242.88C228.946 242.4 228.807 241.923 228.521 241.536C228.375 241.384 228.196 241.265 227.999 241.188C227.802 241.111 227.59 241.079 227.379 241.093C227.131 241.078 226.883 241.117 226.651 241.206C226.419 241.295 226.209 241.433 226.035 241.61C225.679 242.033 225.503 242.578 225.544 243.129V246.865H223.354V236.449H225.544V240.098C225.843 239.8 226.203 239.57 226.599 239.426C227.03 239.269 227.485 239.192 227.943 239.198C228.363 239.175 228.782 239.239 229.176 239.385C229.57 239.53 229.931 239.755 230.235 240.044Z" fill="white"/>
<path d="M234.616 246.476C234.002 246.162 233.487 245.683 233.131 245.091C232.769 244.482 232.585 243.784 232.6 243.075C232.587 242.367 232.771 241.669 233.131 241.059C233.49 240.472 234.004 239.995 234.616 239.682C235.277 239.341 236.011 239.17 236.753 239.185C237.494 239.17 238.226 239.341 238.884 239.682C239.495 239.995 240.007 240.472 240.362 241.059C240.722 241.669 240.906 242.367 240.893 243.075C240.908 243.784 240.724 244.482 240.362 245.091C240.009 245.682 239.496 246.162 238.884 246.476C238.226 246.817 237.494 246.988 236.753 246.973C236.011 246.987 235.277 246.816 234.616 246.476ZM238.138 244.614C238.486 244.182 238.675 243.644 238.675 243.089C238.675 242.534 238.486 241.996 238.138 241.563C237.96 241.377 237.744 241.231 237.506 241.134C237.267 241.036 237.011 240.991 236.753 240.999C236.495 240.992 236.238 241.038 235.999 241.135C235.759 241.232 235.543 241.378 235.362 241.563C235.011 241.994 234.819 242.533 234.819 243.089C234.819 243.645 235.011 244.184 235.362 244.614C235.543 244.799 235.759 244.945 235.999 245.042C236.238 245.14 236.495 245.186 236.753 245.179C237.011 245.186 237.268 245.139 237.507 245.041C237.745 244.942 237.96 244.795 238.138 244.608V244.614Z" fill="white"/>
<path d="M243.801 246.476C243.188 246.162 242.676 245.682 242.323 245.091C241.961 244.482 241.777 243.784 241.792 243.075C241.779 242.367 241.963 241.669 242.323 241.059C242.678 240.472 243.19 239.995 243.801 239.682C244.47 239.355 245.209 239.201 245.952 239.231C246.692 239.216 247.425 239.387 248.082 239.729C248.69 240.044 249.199 240.521 249.553 241.106C249.914 241.716 250.098 242.414 250.084 243.122C250.1 243.831 249.916 244.529 249.553 245.138C249.201 245.727 248.691 246.207 248.082 246.523C247.425 246.864 246.692 247.035 245.952 247.02C245.2 247.021 244.461 246.834 243.801 246.476ZM247.296 244.607C247.647 244.177 247.839 243.638 247.839 243.082C247.839 242.526 247.647 241.987 247.296 241.556C247.119 241.371 246.905 241.224 246.667 241.127C246.43 241.03 246.174 240.984 245.918 240.992C245.66 240.984 245.402 241.029 245.163 241.127C244.923 241.224 244.706 241.37 244.527 241.556C244.171 241.985 243.975 242.525 243.975 243.082C243.975 243.639 244.171 244.179 244.527 244.607C244.706 244.794 244.923 244.94 245.163 245.037C245.402 245.134 245.66 245.18 245.918 245.172C246.174 245.18 246.43 245.134 246.667 245.037C246.905 244.94 247.119 244.793 247.296 244.607Z" fill="white"/>
<path d="M252.242 246.744C251.736 246.629 251.253 246.431 250.811 246.16L251.543 244.587C251.92 244.823 252.33 245.002 252.759 245.118C253.216 245.25 253.689 245.317 254.164 245.32C255.091 245.32 255.555 245.096 255.555 244.648C255.552 244.539 255.512 244.434 255.443 244.35C255.373 244.266 255.278 244.208 255.172 244.184C254.796 244.06 254.409 243.977 254.016 243.936C253.499 243.863 252.987 243.755 252.484 243.613C252.083 243.485 251.724 243.253 251.442 242.941C251.283 242.758 251.161 242.544 251.085 242.314C251.009 242.083 250.98 241.839 250.999 241.597C250.993 241.139 251.14 240.693 251.415 240.327C251.726 239.931 252.143 239.633 252.618 239.467C253.218 239.248 253.854 239.143 254.493 239.158C255.029 239.156 255.563 239.215 256.086 239.332C256.546 239.42 256.989 239.584 257.396 239.816L256.67 241.375C256.007 240.999 255.256 240.805 254.493 240.811C254.131 240.79 253.769 240.857 253.438 241.006C253.339 241.05 253.255 241.12 253.193 241.209C253.131 241.298 253.095 241.402 253.089 241.51C253.087 241.623 253.124 241.733 253.194 241.822C253.264 241.911 253.362 241.974 253.472 242C253.863 242.129 254.266 242.219 254.675 242.269C255.187 242.349 255.694 242.459 256.193 242.598C256.584 242.717 256.937 242.937 257.215 243.237C257.522 243.594 257.679 244.056 257.652 244.527C257.655 244.979 257.505 245.419 257.228 245.777C256.906 246.17 256.48 246.463 255.998 246.624C255.385 246.837 254.739 246.94 254.09 246.926C253.469 246.944 252.848 246.883 252.242 246.744Z" fill="white"/>
<path d="M266.34 243.707H260.635C260.726 244.156 260.985 244.553 261.36 244.816C261.784 245.096 262.284 245.237 262.792 245.219C263.149 245.227 263.505 245.168 263.84 245.044C264.156 244.919 264.444 244.732 264.687 244.493L265.849 245.756C265.453 246.176 264.968 246.503 264.43 246.714C263.892 246.924 263.314 247.012 262.738 246.973C261.954 246.99 261.178 246.82 260.473 246.476C259.847 246.169 259.322 245.688 258.961 245.091C258.599 244.482 258.415 243.784 258.431 243.075C258.419 242.368 258.6 241.671 258.955 241.059C259.299 240.473 259.799 239.994 260.4 239.675C261.031 239.336 261.739 239.165 262.456 239.178C263.157 239.163 263.851 239.327 264.472 239.655C265.062 239.958 265.552 240.424 265.883 240.999C266.234 241.631 266.41 242.345 266.394 243.068C266.394 243.068 266.367 243.344 266.34 243.707ZM261.219 241.281C260.874 241.571 260.653 241.982 260.601 242.43H264.324C264.267 241.984 264.045 241.575 263.702 241.284C263.359 240.993 262.919 240.841 262.469 240.858C262.015 240.843 261.571 240.993 261.219 241.281Z" fill="white"/>
<path d="M180.143 160.722C179.895 160.724 179.656 160.633 179.471 160.467L176.783 158.081C176.683 157.995 176.6 157.889 176.541 157.77C176.482 157.651 176.446 157.521 176.438 157.389C176.429 157.256 176.447 157.123 176.49 156.998C176.533 156.872 176.601 156.756 176.689 156.657C176.867 156.468 177.11 156.355 177.369 156.34C177.627 156.325 177.882 156.409 178.08 156.576L180.049 158.31L184.128 153.808C184.311 153.625 184.556 153.52 184.814 153.513C185.071 153.506 185.322 153.598 185.514 153.77C185.706 153.942 185.824 154.181 185.845 154.438C185.866 154.695 185.788 154.95 185.627 155.152L180.876 160.393C180.783 160.496 180.67 160.578 180.544 160.634C180.418 160.691 180.282 160.721 180.143 160.722Z" fill="#3975EB"/>
<path d="M180.143 182.226C179.896 182.23 179.656 182.141 179.471 181.977L176.783 179.585C176.684 179.497 176.603 179.39 176.545 179.27C176.487 179.151 176.453 179.021 176.445 178.889C176.437 178.756 176.456 178.623 176.499 178.498C176.543 178.372 176.611 178.256 176.699 178.157C176.787 178.058 176.894 177.977 177.014 177.919C177.133 177.861 177.263 177.827 177.395 177.819C177.663 177.804 177.926 177.895 178.127 178.073L180.096 179.807L184.175 175.298C184.357 175.116 184.602 175.01 184.86 175.003C185.118 174.996 185.368 175.088 185.56 175.261C185.752 175.433 185.871 175.672 185.892 175.929C185.913 176.186 185.835 176.441 185.673 176.642L180.922 181.883C180.826 181.995 180.706 182.083 180.571 182.142C180.436 182.202 180.29 182.23 180.143 182.226Z" fill="#3975EB"/>
<path d="M180.143 203.737C179.895 203.738 179.655 203.647 179.471 203.481L176.783 201.096C176.684 201.008 176.603 200.901 176.545 200.781C176.487 200.662 176.453 200.532 176.445 200.399C176.437 200.267 176.456 200.134 176.499 200.008C176.543 199.883 176.611 199.767 176.699 199.668C176.787 199.569 176.894 199.488 177.014 199.43C177.133 199.372 177.263 199.338 177.395 199.33C177.663 199.314 177.926 199.406 178.127 199.584L180.096 201.311L184.175 196.808C184.357 196.626 184.602 196.521 184.86 196.514C185.118 196.507 185.368 196.599 185.56 196.771C185.752 196.943 185.871 197.182 185.892 197.439C185.913 197.696 185.835 197.951 185.673 198.152L180.922 203.394C180.826 203.505 180.706 203.593 180.571 203.652C180.436 203.712 180.29 203.74 180.143 203.737Z" fill="#3975EB"/>
<path d="M246.342 81.668L249.037 87.1246L255.058 87.9982L250.703 92.2453L251.731 98.2395L246.342 95.4104L240.959 98.2395L241.987 92.2453L237.633 87.9982L243.654 87.1246L246.342 81.668Z" fill="white"/>
<path d="M235.879 81.668L239.44 88.8785L247.397 90.0344L241.638 95.6456L242.995 103.568L235.879 99.8254L228.769 103.568L230.126 95.6456L224.367 90.0344L232.324 88.8785L235.879 81.668Z" fill="white"/>
<path d="M243.863 104.758L235.873 100.565L227.89 104.758L229.415 95.8744L222.957 89.5778L231.881 88.2808L235.873 80.2168L239.858 88.2808L248.782 89.5778L242.324 95.8677L243.863 104.758ZM225.793 90.485L230.846 95.4174L229.65 102.379L235.906 99.0866L242.156 102.379L240.94 95.4242L245.993 90.4917L239.004 89.477L235.873 83.14L232.741 89.4702L225.793 90.485Z" fill="#3975EB"/>
<path d="M315.02 278.315C315.02 276.904 314.953 188.126 314.859 57.6843L315.02 57.8455H156.308L156.482 57.6708C156.482 140.226 156.482 216.606 156.449 278.302L156.308 278.161L315.041 278.302L156.308 278.443H156.166V278.302C156.166 216.606 156.166 140.226 156.133 57.6708V57.4961H156.328H315.041H315.168V57.6507C315.081 188.16 315.02 276.904 315.02 278.315Z" fill="#263238"/>
<path d="M237.345 190.411C237.345 190.411 234.993 186.877 239.704 186.682C244.414 186.487 267.572 190.411 275.42 194.336L282.288 198.65L274.849 213.367H257.754C255.791 213.367 250.301 210.007 255.402 207.682C255.402 207.682 250.301 204.147 255.012 201.204C255.012 201.204 251.282 198.455 255.207 194.726L237.345 190.411Z" fill="#FFBF9D"/>
<path d="M276.797 195.794L315.773 216.209L330.395 202.218L347.82 217.916C347.82 217.916 330.55 238.197 320.544 239.965C310.538 241.732 271.568 210.397 271.568 210.397L276.797 195.794Z" fill="#FFBF9D"/>
<path d="M317.688 133.056L317.325 133.264C316.759 133.555 316.155 133.765 315.531 133.889C315.234 133.922 314.94 133.976 314.65 134.05C314.478 134.144 314.314 134.252 314.16 134.373C313.091 134.998 311.734 135.045 310.538 135.2C309.194 135.341 307.749 135.549 306.701 136.416C305.652 137.283 305.182 139.01 306.103 140.011C305.669 140.018 305.253 140.183 304.933 140.475C304.612 140.767 304.409 141.166 304.362 141.597C304.331 142.03 304.411 142.465 304.594 142.859C304.778 143.253 305.059 143.593 305.41 143.848C306.123 144.353 306.959 144.655 307.83 144.722C307.327 144.806 306.877 145.083 306.575 145.493C306.273 145.903 306.142 146.414 306.21 146.919C306.301 147.422 306.518 147.893 306.842 148.288C307.165 148.683 307.584 148.989 308.058 149.177C309.009 149.547 310.03 149.704 311.048 149.634C312.362 149.587 313.676 149.614 314.986 149.715C314.986 149.715 314.986 151.012 314.986 151.596C314.986 152.389 314.986 151.771 314.986 151.771C315.696 152.185 316.46 152.495 317.258 152.692C319.025 153.27 320.168 153.74 321.76 154.15C322.95 154.459 324.119 154.607 324.757 153.807C326.296 151.885 322.251 149.103 322.251 149.103C323.44 148.431 323.118 144.621 321.35 144.104C322.224 143.674 322.775 143.721 323.292 142.887C323.56 142.478 323.727 142.012 323.781 141.526C323.834 141.041 323.773 140.549 323.601 140.092C323.411 139.642 323.079 139.267 322.656 139.024C322.232 138.781 321.74 138.684 321.256 138.748C321.828 138.256 322.237 137.602 322.43 136.873C322.623 136.143 322.591 135.373 322.338 134.662C322.005 133.813 321.371 133.117 320.557 132.706C320.154 132.502 319.717 132.373 319.267 132.323C319.098 132.293 318.925 132.293 318.756 132.323C318.681 132.347 318.611 132.383 318.548 132.431C318.252 132.586 317.997 132.848 317.688 133.056Z" fill="#FFBF9D"/>
<path d="M319.576 128.674C319.563 128.253 319.46 127.839 319.274 127.461C319.087 127.083 318.821 126.75 318.494 126.484C317.674 125.926 316.196 125.993 315.221 126.208C315.161 127.391 315.221 127.989 315.141 129.172C315.141 129.42 315.215 129.615 315.1 129.844C314.798 130.428 313.514 130.516 312.923 130.818C312.435 131.115 312.079 131.587 311.927 132.138C311.776 132.689 311.842 133.277 312.11 133.782C312.406 134.272 312.835 134.667 313.349 134.921C313.862 135.175 314.437 135.276 315.006 135.213C316.152 135.068 317.201 134.5 317.95 133.62C318.546 132.952 318.998 132.168 319.278 131.317C319.558 130.466 319.659 129.566 319.576 128.674Z" fill="#FFBF9D"/>
<path d="M321.586 138.681C321.586 138.775 318.138 139.151 313.864 139.514C309.59 139.877 306.116 140.099 306.109 139.998C306.103 139.897 309.557 139.527 313.831 139.164C318.105 138.802 321.579 138.58 321.586 138.681Z" fill="#FF9A6C"/>
<path d="M321.586 144.076C320.929 144.277 320.254 144.412 319.57 144.479C317.926 144.724 316.271 144.886 314.611 144.963C312.662 145.064 310.901 145.044 309.625 144.963C308.934 144.967 308.245 144.899 307.568 144.762C308.254 144.694 308.944 144.678 309.631 144.715C310.901 144.715 312.655 144.715 314.591 144.594C316.526 144.473 318.273 144.345 319.537 144.217C320.216 144.123 320.901 144.075 321.586 144.076Z" fill="#FF9A6C"/>
<path d="M321.586 149.352C321.036 149.507 320.47 149.598 319.899 149.62C318.851 149.728 317.399 149.809 315.793 149.829C314.187 149.849 312.736 149.829 311.687 149.829C311.117 149.855 310.545 149.823 309.98 149.735C310.54 149.623 311.11 149.572 311.681 149.58C312.736 149.533 314.187 149.513 315.787 149.486C317.386 149.459 318.837 149.425 319.886 149.378C320.451 149.322 321.019 149.313 321.586 149.352Z" fill="#FF9A6C"/>
<path d="M319.26 130.408C319.391 130.854 319.353 131.333 319.153 131.752C318.747 132.764 317.981 133.59 317.003 134.071C316.488 134.346 315.948 134.571 315.39 134.743C314.937 134.903 314.468 135.013 313.992 135.072C313.654 135.11 313.312 135.032 313.024 134.85C312.829 134.716 312.776 134.588 312.789 134.575C313.136 134.801 313.555 134.892 313.965 134.83C314.423 134.735 314.873 134.603 315.309 134.433C315.843 134.251 316.362 134.026 316.861 133.761C317.775 133.312 318.511 132.569 318.951 131.651C319.09 131.247 319.193 130.831 319.26 130.408Z" fill="#FF9A6C"/>
<path d="M136.828 98.4414H21.4922V258.754H136.828V98.4414Z" fill="white"/>
<path d="M136.828 98.4414H21.4922V156.469H136.828V98.4414Z" fill="#455A64"/>
<path d="M116.862 170.688C116.862 170.789 101.003 170.87 81.4476 170.87C61.8924 170.87 46.0332 170.789 46.0332 170.688C46.0332 170.588 61.8857 170.514 81.4476 170.514C101.01 170.514 116.862 170.574 116.862 170.688Z" fill="#263238"/>
<path d="M116.862 186.299C116.862 186.393 101.003 186.473 81.4476 186.473C61.8924 186.473 46.0332 186.393 46.0332 186.299C46.0332 186.205 61.8857 186.124 81.4476 186.124C101.01 186.124 116.862 186.205 116.862 186.299Z" fill="#263238"/>
<path d="M116.862 201.929C116.862 202.024 101.003 202.104 81.4476 202.104C61.8924 202.104 46.0332 202.024 46.0332 201.929C46.0332 201.835 61.8857 201.748 81.4476 201.748C101.01 201.748 116.862 201.829 116.862 201.929Z" fill="#263238"/>
<path d="M116.566 219.945H47.2891C40.4751 219.945 34.9512 225.469 34.9512 232.283V233.567C34.9512 240.381 40.4751 245.905 47.2891 245.905H116.566C123.38 245.905 128.904 240.381 128.904 233.567V232.283C128.904 225.469 123.38 219.945 116.566 219.945Z" fill="#455A64"/>
<path d="M68.4498 142.148C68.702 142.487 68.8323 142.902 68.8194 143.324C68.831 143.632 68.7622 143.938 68.6196 144.211C68.477 144.485 68.2656 144.716 68.0063 144.883C67.2944 145.29 66.4791 145.479 65.661 145.427H61.5215V137.76H65.446C66.2278 137.709 67.0063 137.899 67.677 138.304C67.9187 138.464 68.1162 138.682 68.2513 138.938C68.3864 139.194 68.4547 139.48 68.4498 139.769C68.4527 140.115 68.3596 140.454 68.181 140.75C67.9915 141.04 67.7267 141.272 67.4149 141.422C67.8246 141.556 68.1851 141.808 68.4498 142.148ZM63.6652 139.326V140.804H65.1839C65.9164 140.804 66.2792 140.555 66.2792 140.058C66.2792 139.561 65.9164 139.326 65.1839 139.326H63.6652ZM66.6287 143.082C66.6287 142.565 66.2456 142.303 65.4863 142.303H63.6652V143.862H65.4863C66.2456 143.862 66.6287 143.6 66.6287 143.082Z" fill="white"/>
<path d="M75.0907 143.935H71.845L71.2469 145.427H69.0293L72.3893 137.753H74.5263L77.9535 145.427H75.6955L75.0907 143.935ZM74.4523 142.336L73.4712 139.883L72.4834 142.336H74.4523Z" fill="white"/>
<path d="M79.452 145.354C78.944 145.234 78.4616 145.025 78.0273 144.735L78.7397 143.136C79.1106 143.375 79.5132 143.56 79.9358 143.687C80.3706 143.825 80.8238 143.895 81.2798 143.895C82.1131 143.895 82.5297 143.687 82.5297 143.27C82.5285 143.162 82.4936 143.056 82.4298 142.968C82.366 142.881 82.2765 142.815 82.1736 142.78C81.8024 142.637 81.4204 142.525 81.0312 142.444C80.5388 142.345 80.0538 142.213 79.5797 142.047C79.1968 141.911 78.8547 141.68 78.5851 141.375C78.2914 141.02 78.1427 140.566 78.1685 140.105C78.1631 139.653 78.2968 139.209 78.5515 138.835C78.8396 138.435 79.2359 138.125 79.6939 137.942C80.2891 137.711 80.9241 137.602 81.5621 137.619C82.0642 137.617 82.5648 137.674 83.0539 137.787C83.509 137.886 83.9464 138.053 84.3509 138.284L83.6789 139.897C83.0323 139.524 82.3018 139.32 81.5553 139.306C81.2304 139.281 80.905 139.346 80.6145 139.494C80.525 139.542 80.4502 139.614 80.3981 139.702C80.3461 139.789 80.3187 139.889 80.3189 139.991C80.3202 140.096 80.3548 140.197 80.4176 140.28C80.4805 140.364 80.5683 140.425 80.6683 140.455C81.0342 140.594 81.4121 140.7 81.7973 140.771C82.2896 140.872 82.7745 141.007 83.2488 141.174C83.6298 141.314 83.9711 141.545 84.2433 141.846C84.5492 142.204 84.7035 142.666 84.6734 143.136C84.6786 143.582 84.5447 144.019 84.2904 144.386C84.0011 144.788 83.6021 145.098 83.1413 145.28C82.5478 145.518 81.9122 145.632 81.2731 145.616C80.6572 145.608 80.045 145.52 79.452 145.354Z" fill="white"/>
<path d="M85.6602 137.76H87.8307V145.434H85.6602V137.76Z" fill="white"/>
<path d="M91.0372 145.071C90.4114 144.748 89.8879 144.257 89.5252 143.653C89.1682 143.025 88.9805 142.316 88.9805 141.593C88.9805 140.871 89.1682 140.162 89.5252 139.534C89.8875 138.928 90.411 138.435 91.0372 138.109C91.706 137.766 92.4493 137.593 93.201 137.605C93.8516 137.594 94.4972 137.72 95.0961 137.975C95.6455 138.212 96.1278 138.582 96.5006 139.05L95.1162 140.3C94.9048 140.021 94.6316 139.794 94.318 139.638C94.0044 139.481 93.6589 139.4 93.3086 139.399C92.9213 139.393 92.5391 139.488 92.1997 139.675C91.8758 139.852 91.6116 140.121 91.4404 140.448C91.2549 140.799 91.1623 141.193 91.1716 141.59C91.1632 141.99 91.2557 142.385 91.4404 142.739C91.6135 143.065 91.8773 143.333 92.1997 143.512C92.5391 143.699 92.9213 143.794 93.3086 143.788C93.6589 143.787 94.0044 143.705 94.318 143.549C94.6316 143.393 94.9048 143.166 95.1162 142.887L96.5006 144.137C96.1259 144.603 95.6441 144.972 95.0961 145.212C94.4972 145.467 93.8516 145.593 93.201 145.582C92.4484 145.595 91.7043 145.42 91.0372 145.071Z" fill="white"/>
<path d="M64.3243 235.549C63.7469 235.238 63.2676 234.773 62.94 234.205C62.6094 233.626 62.4355 232.97 62.4355 232.303C62.4355 231.636 62.6094 230.981 62.94 230.402C63.2822 229.869 63.76 229.438 64.3243 229.152C64.8883 228.865 65.5074 228.704 66.1394 228.678C66.7714 228.653 67.4015 228.764 67.9867 229.004C68.4733 229.212 68.9039 229.532 69.2433 229.938L68.1816 230.919C67.9661 230.654 67.6932 230.441 67.3836 230.297C67.074 230.153 66.7356 230.08 66.3941 230.086C65.9813 230.077 65.5734 230.176 65.2113 230.375C64.8703 230.562 64.5886 230.842 64.3982 231.181C64.2015 231.544 64.102 231.951 64.1093 232.364C64.1001 232.777 64.1998 233.185 64.3982 233.547C64.5841 233.873 64.856 234.143 65.1845 234.326C65.5465 234.525 65.9544 234.624 66.3672 234.615C66.7099 234.619 67.0491 234.545 67.3589 234.398C67.6687 234.252 67.9409 234.036 68.1547 233.768L69.2165 234.749C68.8806 235.165 68.4464 235.491 67.9531 235.697C67.4209 235.918 66.8492 236.027 66.2731 236.02C65.5947 236.025 64.9254 235.864 64.3243 235.549Z" fill="white"/>
<path d="M75.2237 230.946C75.4451 231.191 75.6146 231.478 75.7221 231.789C75.8295 232.101 75.8725 232.432 75.8486 232.761V235.872H74.2627V232.976C74.2878 232.629 74.185 232.284 73.9737 232.008C73.8682 231.897 73.7394 231.81 73.5965 231.754C73.4536 231.699 73.3002 231.675 73.1472 231.685C72.9711 231.677 72.7951 231.705 72.6307 231.769C72.4663 231.832 72.3172 231.93 72.1929 232.055C71.9323 232.363 71.8042 232.762 71.8368 233.164V235.852H70.2441V228.339H71.8368V230.987C72.0467 230.774 72.2983 230.607 72.576 230.496C72.89 230.38 73.2225 230.323 73.5571 230.328C73.8623 230.312 74.1676 230.359 74.4542 230.465C74.7408 230.571 75.0026 230.735 75.2237 230.946Z" fill="white"/>
<path d="M78.4031 235.623C77.959 235.392 77.5871 235.043 77.3279 234.615C77.0771 234.17 76.9453 233.668 76.9453 233.157C76.9453 232.646 77.0771 232.144 77.3279 231.699C77.5893 231.274 77.9609 230.928 78.4031 230.697C78.8853 230.451 79.4206 230.326 79.9622 230.334C80.4995 230.325 81.0306 230.45 81.5078 230.697C81.9497 230.926 82.3196 231.272 82.5762 231.699C82.8316 232.142 82.9659 232.645 82.9659 233.157C82.9659 233.669 82.8316 234.172 82.5762 234.615C82.3206 235.044 81.9506 235.393 81.5078 235.623C81.03 235.868 80.4989 235.99 79.9622 235.979C79.4212 235.99 78.8858 235.868 78.4031 235.623ZM80.9634 234.279C81.2349 233.976 81.3751 233.577 81.3532 233.17C81.3639 232.97 81.335 232.77 81.2681 232.58C81.2012 232.391 81.0977 232.217 80.9634 232.068C80.8346 231.933 80.6791 231.826 80.5067 231.754C80.3343 231.683 80.1488 231.648 79.9622 231.652C79.7732 231.646 79.5852 231.68 79.4104 231.752C79.2355 231.823 79.0778 231.931 78.9474 232.068C78.812 232.217 78.7073 232.391 78.6392 232.58C78.5712 232.769 78.5412 232.97 78.551 233.17C78.5316 233.578 78.6741 233.976 78.9474 234.279C79.0784 234.415 79.2364 234.521 79.4112 234.592C79.586 234.663 79.7737 234.696 79.9622 234.689C80.1493 234.692 80.3351 234.656 80.5075 234.583C80.6799 234.51 80.8352 234.402 80.9634 234.266V234.279Z" fill="white"/>
<path d="M85.083 235.624C84.6377 235.394 84.2653 235.045 84.0078 234.616C83.8075 234.291 83.6762 233.929 83.622 233.552C83.5678 233.175 83.5918 232.79 83.6927 232.423C83.7936 232.055 83.9691 231.712 84.2083 231.416C84.4475 231.119 84.7452 230.875 85.083 230.698C85.5657 230.459 86.0969 230.335 86.6353 230.335C87.1738 230.335 87.705 230.459 88.1876 230.698C88.6296 230.926 88.9995 231.273 89.2561 231.699C89.5115 232.143 89.6458 232.646 89.6458 233.157C89.6458 233.669 89.5115 234.172 89.2561 234.616C89.0005 235.044 88.6305 235.393 88.1876 235.624C87.7037 235.858 87.173 235.98 86.6353 235.98C86.0976 235.98 85.5669 235.858 85.083 235.624ZM87.6433 234.28C87.9115 233.98 88.0514 233.586 88.0331 233.184C88.0438 232.984 88.0148 232.784 87.948 232.594C87.8811 232.405 87.7776 232.231 87.6433 232.082C87.5138 231.946 87.3571 231.839 87.1835 231.767C87.0099 231.695 86.8231 231.661 86.6353 231.666C86.4475 231.661 86.2608 231.695 86.0872 231.767C85.9135 231.839 85.7569 231.946 85.6273 232.082C85.4919 232.231 85.3871 232.405 85.3191 232.594C85.2511 232.783 85.2211 232.984 85.2308 233.184C85.2115 233.592 85.354 233.99 85.6273 234.293C85.7575 234.428 85.9144 234.534 86.088 234.605C86.2616 234.675 86.448 234.709 86.6353 234.703C86.8246 234.705 87.0123 234.668 87.186 234.592C87.3597 234.517 87.5156 234.406 87.6433 234.266V234.28Z" fill="white"/>
<path d="M91.2107 235.811C90.8438 235.731 90.4937 235.588 90.1758 235.388L90.7067 234.252C90.9815 234.422 91.2806 234.549 91.5937 234.629C91.9232 234.726 92.2649 234.776 92.6084 234.777C93.2804 234.777 93.6164 234.615 93.6164 234.279C93.6152 234.2 93.5873 234.124 93.5372 234.063C93.4872 234.002 93.418 233.96 93.3409 233.943C93.0679 233.855 92.7863 233.797 92.5009 233.769C92.1236 233.719 91.7506 233.64 91.3854 233.533C91.0966 233.447 90.8351 233.287 90.626 233.07C90.3972 232.804 90.2814 232.459 90.3035 232.109C90.2985 231.777 90.405 231.453 90.6059 231.188C90.8342 230.899 91.1393 230.68 91.4862 230.556C91.9169 230.401 92.3724 230.326 92.8302 230.335C93.219 230.334 93.6068 230.376 93.986 230.462C94.32 230.53 94.6417 230.648 94.9403 230.812L94.4094 231.947C93.9286 231.673 93.3836 231.532 92.8302 231.538C92.5672 231.523 92.3046 231.571 92.0641 231.679C91.9916 231.711 91.9294 231.762 91.8843 231.827C91.8393 231.893 91.8131 231.969 91.8087 232.048C91.809 232.13 91.8362 232.209 91.886 232.273C91.9358 232.338 92.0055 232.384 92.0843 232.404C92.3712 232.496 92.6658 232.561 92.9646 232.599C93.3359 232.658 93.7038 232.736 94.0667 232.834C94.3512 232.921 94.6067 233.084 94.8059 233.305C94.9178 233.432 95.0034 233.58 95.0576 233.74C95.1118 233.901 95.1336 234.07 95.1217 234.239C95.1268 234.567 95.0202 234.887 94.8193 235.146C94.5836 235.43 94.2744 235.644 93.9255 235.764C93.4786 235.919 93.0073 235.992 92.5345 235.979C92.0879 235.98 91.643 235.924 91.2107 235.811Z" fill="white"/>
<path d="M101.472 233.607H97.3257C97.3893 233.934 97.5772 234.223 97.8499 234.413C98.158 234.618 98.522 234.721 98.8915 234.709C99.1505 234.716 99.4083 234.672 99.6508 234.581C99.8814 234.489 100.092 234.352 100.269 234.178L101.116 235.099C100.826 235.403 100.473 235.639 100.082 235.791C99.6901 235.943 99.2701 236.007 98.8512 235.979C98.2841 235.992 97.722 235.87 97.2115 235.623C96.7544 235.401 96.3715 235.051 96.1094 234.615C95.856 234.172 95.7227 233.67 95.7227 233.16C95.7227 232.65 95.856 232.148 96.1094 231.705C96.3614 231.278 96.7265 230.93 97.1644 230.697C97.6229 230.452 98.1363 230.327 98.6563 230.334C99.164 230.326 99.6656 230.446 100.115 230.684C100.544 230.909 100.899 231.255 101.136 231.678C101.38 232.141 101.496 232.661 101.472 233.184C101.472 233.184 101.472 233.345 101.472 233.607ZM97.7356 231.84C97.4879 232.051 97.3294 232.349 97.2921 232.673H99.9801C99.9361 232.35 99.7761 232.054 99.5299 231.84C99.2775 231.63 98.9572 231.52 98.6294 231.531C98.3039 231.522 97.9863 231.632 97.7356 231.84Z" fill="white"/>
<path d="M38.8223 173.585C38.5755 173.586 38.3366 173.498 38.1503 173.336L36.1813 171.595C35.9808 171.417 35.8593 171.167 35.8435 170.899C35.8278 170.631 35.9191 170.368 36.0973 170.167C36.2755 169.967 36.5261 169.845 36.7939 169.83C37.0617 169.814 37.3248 169.905 37.5253 170.083L38.7551 171.165L41.5371 168.088C41.7217 167.916 41.9636 167.82 42.2154 167.818C42.4672 167.817 42.7105 167.909 42.8976 168.077C43.0846 168.246 43.2018 168.478 43.2262 168.729C43.2505 168.98 43.1801 169.23 43.029 169.432L39.5816 173.242C39.4857 173.348 39.3687 173.434 39.2379 173.493C39.1072 173.552 38.9657 173.583 38.8223 173.585Z" fill="#455A64"/>
<path d="M38.8228 189.208C38.576 189.21 38.3371 189.121 38.1508 188.959L36.1819 187.226C36.0821 187.137 36.0008 187.03 35.9424 186.911C35.8841 186.791 35.8498 186.661 35.8417 186.528C35.8253 186.26 35.9163 185.996 36.0945 185.794C36.2727 185.593 36.5236 185.47 36.7921 185.454C37.0605 185.438 37.3245 185.529 37.5259 185.707L38.7489 186.816L41.531 183.745C41.615 183.633 41.7214 183.539 41.8434 183.471C41.9655 183.402 42.1004 183.36 42.2397 183.347C42.379 183.333 42.5196 183.349 42.6525 183.392C42.7854 183.436 42.9078 183.507 43.0118 183.601C43.1157 183.695 43.1991 183.809 43.2565 183.937C43.3138 184.064 43.344 184.202 43.345 184.342C43.3461 184.482 43.318 184.621 43.2625 184.749C43.207 184.878 43.1254 184.993 43.0228 185.089L39.5755 188.899C39.4784 189 39.3613 189.079 39.2317 189.133C39.1021 189.186 38.9629 189.212 38.8228 189.208Z" fill="#455A64"/>
<path d="M38.8223 204.839C38.5755 204.841 38.3366 204.752 38.1503 204.591L36.1813 202.85C36.082 202.762 36.0011 202.655 35.9431 202.535C35.8852 202.416 35.8513 202.286 35.8435 202.153C35.8357 202.021 35.8541 201.888 35.8977 201.763C35.9412 201.637 36.009 201.521 36.0973 201.422C36.1855 201.323 36.2925 201.242 36.412 201.184C36.5315 201.126 36.6613 201.092 36.7939 201.084C36.9265 201.077 37.0593 201.095 37.1848 201.138C37.3103 201.182 37.426 201.25 37.5253 201.338L38.755 202.42L41.5371 199.342C41.6212 199.23 41.7276 199.137 41.8496 199.069C41.9716 199 42.1066 198.958 42.2459 198.944C42.3852 198.931 42.5257 198.946 42.6587 198.99C42.7916 199.034 42.9139 199.105 43.0179 199.199C43.1219 199.292 43.2052 199.407 43.2626 199.534C43.32 199.662 43.3502 199.8 43.3512 199.94C43.3522 200.08 43.3241 200.219 43.2686 200.347C43.2132 200.476 43.1315 200.591 43.029 200.686L39.5816 204.496C39.4857 204.603 39.3687 204.689 39.2379 204.748C39.1072 204.807 38.9657 204.838 38.8223 204.839Z" fill="#455A64"/>
<path d="M83.5297 127.828L79.1617 125.47L74.7399 127.728L75.6337 122.849L72.1191 119.341L77.0382 118.682L79.2894 114.254L81.4398 118.729L86.3454 119.502L82.7502 122.929L83.5297 127.828Z" fill="white"/>
<path d="M136.827 258.754C136.827 257.342 136.766 193.2 136.672 98.4413L136.827 98.6026L21.5048 98.616L21.6795 98.4413C21.6795 158.424 21.6795 213.925 21.6459 258.754L21.5048 258.613L136.84 258.754L21.5048 258.895H21.3637V258.754C21.3637 213.925 21.3637 158.424 21.3301 98.4413V98.2666H21.5048H136.827H136.988V98.4212C136.894 193.2 136.833 257.376 136.827 258.754Z" fill="#263238"/>
</svg>
