<svg width="500" height="500" viewBox="0 0 500 500" fill="none" xmlns="http://www.w3.org/2000/svg">
<path d="M423.999 265.32C434.089 311.32 405.909 341.04 366.889 339.66C348.179 339 325.839 318.43 307.469 313.85C283.469 307.85 262.709 315.62 239.779 316.76C182.729 319.58 183.479 296.3 145.039 266.28C118.039 245.18 74.4693 247.49 60.0393 210.54C42.3593 165.37 93.0393 143.54 131.539 150.24C175.779 157.92 188.029 102.84 255.599 108.94C321.999 114.94 409.789 196 423.999 265.32Z" fill="#3975EB"/>
<path opacity="0.9" d="M423.999 265.32C434.089 311.32 405.909 341.04 366.889 339.66C348.179 339 325.839 318.43 307.469 313.85C283.469 307.85 262.709 315.62 239.779 316.76C182.729 319.58 183.479 296.3 145.039 266.28C118.039 245.18 74.4693 247.49 60.0393 210.54C42.3593 165.37 93.0393 143.54 131.539 150.24C175.779 157.92 188.029 102.84 255.599 108.94C321.999 114.94 409.789 196 423.999 265.32Z" fill="white"/>
<path d="M249.999 427.56C357.082 427.56 443.889 422.492 443.889 416.24C443.889 409.988 357.082 404.92 249.999 404.92C142.917 404.92 56.1094 409.988 56.1094 416.24C56.1094 422.492 142.917 427.56 249.999 427.56Z" fill="#F5F5F5"/>
<path d="M260.41 365.5H132.84C130.788 365.471 128.824 364.668 127.34 363.251C125.856 361.834 124.963 359.908 124.84 357.86L113.4 136.31C113.336 135.325 113.477 134.337 113.813 133.408C114.149 132.48 114.674 131.631 115.354 130.914C116.033 130.198 116.854 129.63 117.763 129.245C118.673 128.861 119.652 128.669 120.64 128.68H248.21C250.26 128.707 252.225 129.508 253.709 130.924C255.193 132.339 256.086 134.263 256.21 136.31L267.63 357.86C267.693 358.844 267.553 359.831 267.218 360.759C266.883 361.686 266.36 362.535 265.683 363.252C265.005 363.969 264.188 364.538 263.28 364.925C262.373 365.312 261.396 365.508 260.41 365.5Z" fill="#3975EB"/>
<path opacity="0.8" d="M260.41 365.5H132.84C130.788 365.471 128.824 364.668 127.34 363.251C125.856 361.834 124.963 359.908 124.84 357.86L113.4 136.31C113.336 135.325 113.477 134.337 113.813 133.408C114.149 132.48 114.674 131.631 115.354 130.914C116.033 130.198 116.854 129.63 117.763 129.245C118.673 128.861 119.652 128.669 120.64 128.68H248.21C250.26 128.707 252.225 129.508 253.709 130.924C255.193 132.339 256.086 134.263 256.21 136.31L267.63 357.86C267.693 358.844 267.553 359.831 267.218 360.759C266.883 361.686 266.36 362.535 265.683 363.252C265.005 363.969 264.188 364.538 263.28 364.925C262.373 365.312 261.396 365.508 260.41 365.5Z" fill="white"/>
<path d="M235.62 121.46H221.51V122.46H235.62V121.46Z" fill="#3975EB"/>
<path d="M216.619 121.46H211.449V122.46H216.619V121.46Z" fill="#3975EB"/>
<path d="M265.899 351.44H143.899C141.935 351.421 140.05 350.658 138.625 349.306C137.2 347.953 136.341 346.111 136.219 344.15L125.299 132.25C125.239 131.307 125.373 130.361 125.695 129.473C126.017 128.584 126.519 127.772 127.17 127.086C127.821 126.401 128.606 125.857 129.477 125.49C130.347 125.122 131.284 124.938 132.229 124.95H254.229C256.194 124.971 258.077 125.737 259.5 127.091C260.923 128.445 261.781 130.289 261.899 132.25L272.819 344.15C272.88 345.092 272.745 346.036 272.424 346.923C272.103 347.81 271.601 348.622 270.952 349.306C270.302 349.991 269.518 350.534 268.648 350.901C267.779 351.268 266.843 351.451 265.899 351.44Z" fill="#3975EB"/>
<path d="M265.9 346.57H143.9C143.185 346.546 142.503 346.259 141.985 345.765C141.467 345.271 141.148 344.604 141.09 343.89L130.16 132C130.135 131.719 130.171 131.435 130.264 131.167C130.357 130.9 130.505 130.656 130.7 130.45C130.895 130.245 131.131 130.084 131.393 129.977C131.655 129.87 131.937 129.82 132.22 129.83H254.22C254.934 129.857 255.613 130.145 256.129 130.639C256.645 131.133 256.962 131.799 257.02 132.51L268 344.4C268.024 344.681 267.989 344.964 267.896 345.23C267.803 345.496 267.655 345.74 267.461 345.945C267.268 346.15 267.033 346.311 266.772 346.419C266.512 346.527 266.232 346.578 265.95 346.57H265.9ZM132.22 130.08C131.971 130.072 131.724 130.116 131.493 130.209C131.262 130.302 131.054 130.442 130.88 130.62C130.713 130.805 130.585 131.022 130.505 131.257C130.424 131.493 130.392 131.742 130.41 131.99L141.33 343.88C141.386 344.529 141.677 345.136 142.148 345.585C142.62 346.034 143.239 346.296 143.89 346.32H265.89C266.137 346.33 266.384 346.287 266.613 346.194C266.843 346.101 267.049 345.96 267.22 345.78C267.391 345.598 267.521 345.382 267.602 345.146C267.684 344.91 267.713 344.659 267.69 344.41L256.78 132.52C256.727 131.872 256.438 131.266 255.968 130.817C255.498 130.367 254.88 130.105 254.23 130.08H132.22Z" fill="white"/>
<path opacity="0.3" d="M223.226 207.056C237.102 192.817 236.198 169.431 221.208 154.823C206.217 140.214 182.816 139.915 168.939 154.154C155.063 168.393 155.967 191.779 170.958 206.388C185.948 220.996 209.35 221.295 223.226 207.056Z" fill="white"/>
<path d="M225.999 180.61C226.279 185.524 225.29 190.428 223.129 194.85C220.789 199.593 217.157 203.579 212.65 206.348C208.144 209.117 202.947 210.556 197.659 210.5C192.178 210.451 186.804 208.984 182.058 206.241C177.313 203.499 173.358 199.574 170.579 194.85C167.989 190.53 166.499 185.64 166.239 180.61C165.992 176.752 166.545 172.885 167.861 169.251C169.178 165.616 171.231 162.293 173.891 159.488C176.551 156.683 179.761 154.458 183.321 152.951C186.881 151.444 190.713 150.688 194.579 150.73C202.624 150.814 210.338 153.943 216.168 159.488C221.999 165.032 225.511 172.58 225.999 180.61Z" fill="white"/>
<path d="M223.099 194.85C220.759 199.593 217.127 203.579 212.62 206.348C208.114 209.116 202.917 210.556 197.629 210.5C192.148 210.451 186.774 208.983 182.028 206.241C177.283 203.498 173.328 199.574 170.549 194.85C178.148 189.602 187.174 186.81 196.409 186.85C205.891 186.886 215.16 189.664 223.099 194.85Z" fill="#3975EB"/>
<path d="M205.347 179.915C210.346 174.785 210.018 166.358 204.615 161.093C199.212 155.827 190.78 155.718 185.78 160.848C180.781 165.978 181.109 174.405 186.512 179.67C191.915 184.935 200.347 185.045 205.347 179.915Z" fill="#3975EB"/>
<path d="M248.41 269H152.88C152.048 268.992 151.25 268.668 150.647 268.095C150.044 267.521 149.68 266.741 149.63 265.91L148.91 251.91C148.885 251.512 148.943 251.113 149.079 250.738C149.216 250.363 149.428 250.02 149.703 249.731C149.978 249.442 150.31 249.213 150.678 249.058C151.045 248.903 151.441 248.825 151.84 248.83H247.37C248.2 248.839 248.997 249.161 249.6 249.732C250.202 250.303 250.567 251.082 250.62 251.91L251.34 265.91C251.366 266.309 251.31 266.709 251.174 267.086C251.038 267.462 250.826 267.806 250.551 268.096C250.275 268.386 249.943 268.616 249.575 268.772C249.206 268.928 248.81 269.005 248.41 269Z" fill="white"/>
<path opacity="0.3" d="M219.16 241.1H179.26C178.425 241.094 177.623 240.77 177.017 240.195C176.412 239.619 176.048 238.834 176 238L175.85 235C175.824 234.601 175.88 234.201 176.016 233.825C176.152 233.449 176.364 233.105 176.639 232.815C176.915 232.525 177.247 232.294 177.615 232.139C177.984 231.983 178.38 231.905 178.78 231.91H218.67C219.502 231.919 220.3 232.243 220.903 232.816C221.506 233.389 221.869 234.17 221.92 235L222.08 238C222.105 238.399 222.047 238.798 221.912 239.173C221.776 239.548 221.565 239.892 221.291 240.183C221.017 240.473 220.687 240.704 220.321 240.862C219.954 241.02 219.559 241.101 219.16 241.1Z" fill="black"/>
<path opacity="0.3" d="M234.001 336.31H174.231C172.815 336.292 171.459 335.74 170.433 334.765C169.408 333.789 168.789 332.462 168.701 331.05L168.351 324.15C168.315 323.471 168.418 322.793 168.654 322.156C168.889 321.519 169.252 320.937 169.72 320.445C170.188 319.953 170.751 319.561 171.375 319.294C171.999 319.026 172.671 318.889 173.351 318.89H233.101C234.516 318.907 235.872 319.459 236.898 320.434C237.923 321.41 238.542 322.737 238.631 324.15L238.981 331.05C239.016 331.726 238.913 332.403 238.679 333.038C238.445 333.674 238.084 334.255 237.618 334.747C237.152 335.239 236.592 335.631 235.97 335.9C235.348 336.168 234.678 336.308 234.001 336.31Z" fill="black"/>
<path d="M250.16 302.86H154.62C153.789 302.849 152.992 302.525 152.39 301.952C151.787 301.379 151.423 300.6 151.37 299.77L150.65 285.77C150.625 285.371 150.683 284.972 150.819 284.596C150.956 284.221 151.168 283.877 151.443 283.587C151.718 283.298 152.049 283.067 152.417 282.911C152.785 282.755 153.181 282.676 153.58 282.68H249.11C249.942 282.688 250.74 283.012 251.343 283.585C251.946 284.159 252.31 284.939 252.36 285.77L253.09 299.77C253.113 300.168 253.055 300.567 252.918 300.942C252.781 301.317 252.569 301.659 252.294 301.949C252.019 302.239 251.688 302.469 251.321 302.625C250.954 302.782 250.559 302.862 250.16 302.86Z" fill="white"/>
<path d="M164.999 258.91C165.027 259.352 164.963 259.795 164.812 260.211C164.66 260.627 164.425 261.008 164.12 261.329C163.815 261.65 163.447 261.904 163.039 262.077C162.631 262.249 162.192 262.335 161.749 262.33C160.829 262.319 159.948 261.961 159.282 261.326C158.616 260.692 158.215 259.829 158.159 258.91C158.13 258.469 158.193 258.026 158.343 257.61C158.493 257.194 158.728 256.814 159.032 256.493C159.336 256.171 159.704 255.917 160.111 255.744C160.518 255.572 160.957 255.485 161.399 255.49C162.32 255.501 163.203 255.86 163.87 256.494C164.538 257.128 164.941 257.991 164.999 258.91Z" fill="#263238"/>
<path d="M175.53 258.91C175.559 259.352 175.497 259.794 175.346 260.211C175.196 260.627 174.962 261.007 174.657 261.328C174.353 261.649 173.986 261.904 173.579 262.077C173.171 262.249 172.733 262.336 172.29 262.33C171.37 262.322 170.487 261.964 169.82 261.329C169.154 260.694 168.753 259.829 168.7 258.91C168.671 258.469 168.734 258.026 168.884 257.61C169.034 257.194 169.269 256.814 169.573 256.493C169.877 256.171 170.245 255.917 170.652 255.744C171.059 255.572 171.498 255.485 171.94 255.49C172.861 255.499 173.744 255.857 174.41 256.492C175.077 257.127 175.477 257.991 175.53 258.91Z" fill="#263238"/>
<path d="M186.001 258.91C186.029 259.352 185.967 259.794 185.817 260.211C185.667 260.627 185.432 261.007 185.128 261.328C184.823 261.649 184.456 261.904 184.049 262.077C183.641 262.249 183.203 262.336 182.761 262.33C181.84 262.32 180.957 261.961 180.289 261.327C179.622 260.693 179.218 259.829 179.161 258.91C179.133 258.469 179.197 258.026 179.348 257.61C179.5 257.193 179.735 256.813 180.04 256.492C180.345 256.171 180.713 255.917 181.121 255.744C181.529 255.572 181.968 255.485 182.411 255.49C183.33 255.501 184.212 255.86 184.878 256.495C185.544 257.129 185.945 257.992 186.001 258.91Z" fill="#263238"/>
<path d="M196.549 258.91C196.577 259.351 196.513 259.793 196.362 260.209C196.212 260.624 195.977 261.004 195.673 261.325C195.369 261.646 195.002 261.901 194.596 262.074C194.189 262.247 193.751 262.334 193.309 262.33C192.389 262.32 191.506 261.961 190.838 261.327C190.171 260.693 189.767 259.829 189.709 258.91C189.682 258.469 189.745 258.027 189.896 257.612C190.047 257.196 190.282 256.817 190.586 256.496C190.889 256.175 191.256 255.92 191.663 255.747C192.07 255.574 192.507 255.487 192.949 255.49C193.87 255.501 194.753 255.86 195.421 256.494C196.088 257.128 196.491 257.991 196.549 258.91Z" fill="#263238"/>
<path d="M166.77 292.75C166.799 293.192 166.736 293.634 166.586 294.05C166.436 294.466 166.201 294.847 165.897 295.168C165.593 295.489 165.226 295.744 164.818 295.917C164.411 296.089 163.972 296.175 163.53 296.17C162.609 296.16 161.727 295.801 161.059 295.167C160.391 294.533 159.988 293.669 159.93 292.75C159.903 292.308 159.966 291.866 160.118 291.449C160.269 291.033 160.505 290.653 160.81 290.332C161.115 290.011 161.483 289.756 161.89 289.584C162.298 289.412 162.737 289.325 163.18 289.33C164.1 289.341 164.981 289.7 165.647 290.335C166.313 290.969 166.715 291.832 166.77 292.75Z" fill="#263238"/>
<path d="M177.28 292.75C177.308 293.191 177.244 293.633 177.094 294.049C176.943 294.464 176.708 294.844 176.404 295.165C176.1 295.486 175.734 295.741 175.327 295.914C174.92 296.087 174.482 296.174 174.04 296.17C173.12 296.16 172.237 295.801 171.569 295.167C170.902 294.533 170.498 293.669 170.44 292.75C170.412 292.309 170.474 291.866 170.624 291.45C170.774 291.034 171.009 290.654 171.313 290.332C171.618 290.011 171.985 289.757 172.392 289.584C172.8 289.412 173.238 289.325 173.68 289.33C174.601 289.341 175.484 289.7 176.152 290.334C176.819 290.968 177.223 291.831 177.28 292.75Z" fill="#263238"/>
<path d="M187.79 292.75C187.818 293.192 187.754 293.635 187.603 294.051C187.451 294.467 187.216 294.848 186.911 295.169C186.606 295.49 186.238 295.744 185.83 295.917C185.422 296.089 184.983 296.175 184.54 296.17C183.62 296.162 182.737 295.804 182.07 295.169C181.404 294.534 181.003 293.669 180.95 292.75C180.921 292.309 180.984 291.866 181.134 291.45C181.284 291.034 181.519 290.654 181.823 290.332C182.127 290.011 182.495 289.757 182.902 289.584C183.309 289.412 183.748 289.325 184.19 289.33C185.111 289.341 185.994 289.7 186.661 290.334C187.329 290.968 187.732 291.831 187.79 292.75Z" fill="#263238"/>
<path d="M198.29 292.75C198.319 293.192 198.256 293.634 198.106 294.05C197.956 294.466 197.721 294.847 197.417 295.168C197.113 295.489 196.745 295.744 196.338 295.917C195.931 296.089 195.492 296.175 195.05 296.17C194.129 296.16 193.246 295.801 192.578 295.167C191.911 294.533 191.508 293.669 191.45 292.75C191.422 292.308 191.486 291.866 191.637 291.449C191.789 291.033 192.024 290.653 192.329 290.332C192.634 290.011 193.002 289.756 193.41 289.584C193.818 289.412 194.257 289.325 194.7 289.33C195.62 289.339 196.503 289.697 197.169 290.332C197.836 290.967 198.236 291.831 198.29 292.75Z" fill="#263238"/>
<path d="M208.799 292.75C208.828 293.192 208.766 293.634 208.616 294.05C208.465 294.466 208.231 294.847 207.927 295.168C207.622 295.489 207.255 295.744 206.848 295.916C206.44 296.089 206.002 296.175 205.559 296.17C204.639 296.159 203.756 295.801 203.088 295.167C202.421 294.532 202.017 293.669 201.959 292.75C201.932 292.309 201.995 291.867 202.146 291.452C202.297 291.036 202.532 290.656 202.836 290.336C203.139 290.015 203.506 289.76 203.913 289.587C204.32 289.414 204.757 289.327 205.199 289.33C206.12 289.341 207.003 289.699 207.671 290.334C208.338 290.968 208.741 291.831 208.799 292.75Z" fill="#263238"/>
<path d="M219.31 292.75C219.337 293.192 219.273 293.635 219.122 294.051C218.971 294.467 218.735 294.848 218.43 295.169C218.125 295.49 217.757 295.744 217.349 295.917C216.942 296.089 216.503 296.175 216.06 296.17C215.14 296.159 214.258 295.801 213.592 295.166C212.926 294.532 212.525 293.668 212.47 292.75C212.441 292.309 212.503 291.866 212.654 291.45C212.804 291.034 213.038 290.654 213.343 290.332C213.647 290.011 214.014 289.757 214.421 289.584C214.829 289.412 215.267 289.325 215.71 289.33C216.631 289.341 217.513 289.7 218.181 290.334C218.849 290.968 219.252 291.831 219.31 292.75Z" fill="#263238"/>
<path d="M332.998 176.62C333.248 177 333.378 177.2 333.538 177.47L333.988 178.21C334.278 178.71 334.538 179.21 334.788 179.7C335.288 180.7 335.788 181.7 336.188 182.7C337.027 184.686 337.748 186.72 338.348 188.79C339.559 192.88 340.356 197.081 340.728 201.33L340.798 202.12C340.807 202.28 340.807 202.44 340.798 202.6V203.13C340.815 203.826 340.775 204.521 340.678 205.21C340.487 206.487 340.151 207.738 339.678 208.94C338.8 211.086 337.636 213.105 336.218 214.94C333.574 218.327 330.436 221.296 326.908 223.75L324.148 220.52C326.66 217.684 328.884 214.605 330.788 211.33C331.645 209.844 332.317 208.259 332.788 206.61C332.979 205.912 333.09 205.194 333.118 204.47C333.149 204.161 333.149 203.849 333.118 203.54V203.33C333.129 203.237 333.129 203.143 333.118 203.05L332.998 202.35C332.355 198.623 331.446 194.947 330.278 191.35C329.698 189.56 328.988 187.83 328.278 186.14C327.928 185.29 327.528 184.46 327.128 183.66L326.508 182.48L326.198 181.93L325.938 181.49L332.998 176.62Z" fill="#803E3C"/>
<path d="M323.699 223.77L327.319 231.42L330.189 224.95C330.189 224.95 327.639 219.35 324.189 219.87L323.699 223.77Z" fill="#7F3E3B"/>
<path d="M329.908 231.8L332.788 227.08L330.188 224.95L327.318 231.42L329.908 231.8Z" fill="#7F3E3B"/>
<path d="M313.629 408.22C314.378 408.202 315.122 408.101 315.849 407.92C315.886 407.909 315.919 407.888 315.945 407.86C315.972 407.832 315.99 407.798 315.999 407.76C316.005 407.722 316 407.682 315.984 407.647C315.968 407.611 315.942 407.581 315.909 407.56C315.619 407.37 313.079 405.73 312.099 406.17C311.99 406.221 311.897 406.3 311.829 406.398C311.76 406.496 311.719 406.611 311.709 406.73C311.679 406.911 311.693 407.097 311.75 407.271C311.808 407.445 311.907 407.603 312.039 407.73C312.492 408.08 313.057 408.255 313.629 408.22ZM315.279 407.63C313.829 407.93 312.729 407.88 312.279 407.49C312.187 407.399 312.12 407.286 312.083 407.162C312.046 407.038 312.041 406.907 312.069 406.78C312.069 406.61 312.169 406.56 312.239 406.53C312.779 406.29 314.249 407 315.279 407.63Z" fill="#3975EB"/>
<path d="M315.799 407.92H315.899C315.929 407.901 315.954 407.874 315.971 407.843C315.989 407.812 315.998 407.776 315.999 407.74C315.999 407.64 315.999 405.23 315.079 404.42C314.966 404.319 314.833 404.243 314.688 404.198C314.543 404.153 314.389 404.141 314.239 404.16C314.081 404.162 313.929 404.217 313.807 404.317C313.685 404.417 313.601 404.556 313.569 404.71C313.379 405.66 314.899 407.46 315.699 407.92H315.799ZM314.369 404.53C314.45 404.528 314.531 404.542 314.606 404.571C314.682 404.6 314.751 404.644 314.809 404.7C315.337 405.478 315.609 406.401 315.589 407.34C314.789 406.7 313.839 405.34 313.959 404.77C313.959 404.68 314.029 404.56 314.279 404.53H314.369Z" fill="#3975EB"/>
<path d="M304.19 404.14C304.213 404.111 304.228 404.076 304.234 404.039C304.239 404.002 304.234 403.964 304.22 403.929C304.206 403.894 304.182 403.864 304.152 403.841C304.123 403.819 304.087 403.805 304.05 403.8C303.64 403.8 300.05 403.63 299.23 404.51V404.57C299.162 404.657 299.118 404.76 299.102 404.868C299.086 404.977 299.099 405.088 299.14 405.19C299.193 405.362 299.288 405.518 299.415 405.645C299.542 405.773 299.698 405.867 299.87 405.92C301.03 406.28 303.08 404.97 304.2 404.16L304.19 404.14ZM299.53 404.77C299.98 404.29 301.96 404.16 303.44 404.18C301.89 405.24 300.6 405.74 299.95 405.54C299.836 405.506 299.733 405.444 299.65 405.36C299.566 405.277 299.504 405.174 299.47 405.06C299.45 405.022 299.439 404.979 299.439 404.935C299.439 404.892 299.45 404.849 299.47 404.81L299.53 404.77Z" fill="#3975EB"/>
<path d="M304.189 404.14C304.204 404.109 304.212 404.075 304.212 404.04C304.212 404.005 304.204 403.971 304.189 403.94C304.139 403.86 303.019 401.94 301.699 401.54C301.509 401.484 301.31 401.468 301.114 401.492C300.918 401.516 300.729 401.58 300.559 401.68C300.079 401.96 300.049 402.29 300.109 402.5C300.369 403.43 302.919 404.25 304.019 404.24C304.053 404.239 304.087 404.23 304.117 404.212C304.147 404.195 304.171 404.17 304.189 404.14ZM300.599 402.14C300.655 402.085 300.719 402.037 300.789 402C300.912 401.921 301.051 401.871 301.196 401.852C301.342 401.833 301.489 401.846 301.629 401.89C302.499 402.12 303.309 403.24 303.679 403.79C302.489 403.66 300.679 402.93 300.529 402.37C300.516 402.327 300.516 402.282 300.528 402.24C300.541 402.197 300.565 402.159 300.599 402.13V402.14Z" fill="#3975EB"/>
<path d="M315.199 147.33C314.199 152.33 312.039 163.14 315.509 166.46C315.509 166.46 314.149 171.46 304.919 171.46C294.759 171.46 300.069 166.46 300.069 166.46C305.609 165.14 305.469 161.02 304.499 157.16L315.199 147.33Z" fill="#7F3E3B"/>
<path d="M298.279 135.61C298.335 135.619 298.393 135.619 298.449 135.61C298.496 135.586 298.539 135.554 298.574 135.514C298.608 135.474 298.635 135.427 298.652 135.377C298.669 135.327 298.675 135.274 298.671 135.221C298.667 135.168 298.653 135.117 298.629 135.07C298.36 134.499 297.958 134.002 297.457 133.619C296.956 133.236 296.37 132.979 295.749 132.87C295.645 132.861 295.541 132.892 295.46 132.957C295.378 133.022 295.324 133.116 295.309 133.22C295.298 133.324 295.328 133.429 295.394 133.511C295.459 133.594 295.554 133.647 295.659 133.66C296.149 133.754 296.61 133.963 297.003 134.271C297.396 134.579 297.71 134.976 297.919 135.43C297.958 135.489 298.011 135.537 298.075 135.568C298.138 135.6 298.208 135.614 298.279 135.61Z" fill="#263238"/>
<path d="M295.25 140C294.463 141.46 293.481 142.805 292.33 144C292.642 144.285 293.011 144.499 293.414 144.627C293.816 144.754 294.241 144.793 294.66 144.74L295.25 140Z" fill="#630F0F"/>
<path d="M295.999 138.87C295.919 139.54 295.489 140.04 295.059 139.99C294.629 139.94 294.329 139.35 294.409 138.68C294.489 138.01 294.919 137.51 295.409 137.56C295.899 137.61 296.069 138.2 295.999 138.87Z" fill="#263238"/>
<path d="M295.54 137.62L294 137C294 137 294.65 138.32 295.54 137.62Z" fill="#263238"/>
<path d="M313.018 402.24L304.858 404.14L299.898 385.38L308.058 383.48L313.018 402.24Z" fill="#7F3E3B"/>
<path d="M325.54 407.72H317.17L317.82 388.33H326.2L325.54 407.72Z" fill="#7F3E3B"/>
<path d="M316.499 406.75H325.909C326.072 406.749 326.23 406.807 326.353 406.913C326.477 407.02 326.557 407.168 326.579 407.33L327.649 414.77C327.67 414.958 327.651 415.149 327.593 415.329C327.535 415.509 327.44 415.675 327.313 415.816C327.187 415.957 327.032 416.069 326.859 416.146C326.685 416.222 326.498 416.261 326.309 416.26C323.029 416.21 321.449 416.01 317.309 416.01C314.759 416.01 311.039 416.28 307.529 416.28C304.019 416.28 303.819 412.8 305.289 412.49C311.849 411.07 312.889 409.13 315.099 407.27C315.489 406.936 315.985 406.752 316.499 406.75Z" fill="#263238"/>
<path d="M304.138 402.89L312.688 398.96C312.834 398.891 312.999 398.877 313.154 398.921C313.309 398.965 313.442 399.064 313.528 399.2L317.618 405.52C317.714 405.682 317.774 405.863 317.796 406.051C317.817 406.238 317.799 406.428 317.742 406.608C317.686 406.788 317.592 406.954 317.467 407.096C317.343 407.237 317.19 407.351 317.018 407.43C314.018 408.75 312.498 409.24 308.738 410.97C306.428 412.03 301.738 414.47 298.558 415.97C295.378 417.47 293.738 414.36 294.938 413.46C300.308 409.46 301.848 406.59 303.078 403.98C303.286 403.499 303.664 403.111 304.138 402.89Z" fill="#263238"/>
<path opacity="0.2" d="M299.898 385.38L302.558 395.44L310.618 393.15L308.068 383.48L299.898 385.38Z" fill="black"/>
<path opacity="0.2" d="M326.198 388.33H317.818L317.488 398.33H325.868L326.198 388.33Z" fill="black"/>
<path d="M330 168.36C333.48 169.13 337.2 181.64 337.2 181.64L327.36 192.11C327.36 192.11 319.19 180.35 320.86 176.03C322.55 171.52 325.85 167.46 330 168.36Z" fill="#263238"/>
<path opacity="0.4" d="M324.44 176.33C322.68 174.72 321.49 175.2 320.68 176.48C319.88 180.2 324.62 187.99 326.53 190.94C327.41 187.42 328.42 180 324.44 176.33Z" fill="black"/>
<path d="M285.908 168.61C285.908 168.61 281.908 170.01 289.908 219.16H323.908C323.338 205.32 323.318 196.78 329.908 168.36C325.144 167.377 320.315 166.742 315.458 166.46C310.318 166.09 305.158 166.09 300.018 166.46C293.428 167.07 285.908 168.61 285.908 168.61Z" fill="#263238"/>
<path opacity="0.4" d="M285.6 187.47C285.82 189.86 286.11 192.55 286.49 195.59C289.28 193.08 291.56 185.94 290.72 181.78C288.726 183.398 286.999 185.318 285.6 187.47Z" fill="black"/>
<path d="M289.239 180.001C287.404 184.618 285.338 189.141 283.049 193.551C280.786 198.12 278.108 202.471 275.049 206.551L274.409 207.34L274.089 207.73C273.979 207.86 273.889 207.981 273.719 208.161C273.117 208.817 272.447 209.407 271.719 209.921C270.433 210.811 269.025 211.511 267.539 212.001C264.947 212.828 262.257 213.306 259.539 213.421C254.449 213.623 249.353 213.169 244.379 212.071L244.929 207.87C247.229 207.87 249.639 207.87 251.929 207.68C254.229 207.567 256.52 207.314 258.789 206.921C260.896 206.592 262.957 206.014 264.929 205.201C265.725 204.86 266.469 204.409 267.139 203.861C267.394 203.646 267.626 203.405 267.829 203.141C267.829 203.141 267.949 202.98 268.029 202.87L268.259 202.54L268.729 201.881C271.238 198.005 273.474 193.958 275.419 189.771C277.419 185.521 279.419 181.111 281.249 176.771L289.239 180.001Z" fill="#803E3C"/>
<path d="M285.909 168.61C281.739 169.61 276.619 181.05 276.619 181.05L285.259 193.75C285.259 193.75 296.769 179.26 295.399 174.84C293.999 170.23 290.999 167.37 285.909 168.61Z" fill="#263238"/>
<path d="M247.328 208.51L240.118 205.18L239.398 212.35C239.398 212.35 245.398 214.12 248.398 212.35L247.328 208.51Z" fill="#7F3E3B"/>
<path d="M235.809 204.46L235.119 209.92L239.399 212.35L240.119 205.18L235.809 204.46Z" fill="#7F3E3B"/>
<path d="M318.819 139.36C317.289 147.53 316.819 151.03 312.139 154.74C305.139 160.32 295.389 156.66 294.449 148.2C293.589 140.58 296.229 128.5 304.699 126.2C306.565 125.685 308.532 125.657 310.411 126.118C312.291 126.579 314.021 127.514 315.437 128.834C316.853 130.153 317.907 131.814 318.5 133.656C319.092 135.499 319.202 137.463 318.819 139.36Z" fill="#7F3E3B"/>
<path d="M300.87 141.08C300.4 145.25 300.22 156.08 309.38 156.42C320.59 156.83 323.95 147.25 322.95 143.42C328.79 138.67 329.63 130.5 323.07 124.25C316.51 118 302.07 121.49 298.07 127.58C293 135.13 300.87 141.08 300.87 141.08Z" fill="#263238"/>
<path d="M312.1 126.68C311.56 122.28 311.98 119.25 316.1 119.25C320.22 119.25 325.84 120.74 327.9 124.95C329.96 129.16 330.13 135.75 324.38 135.08C318.63 134.41 312.75 131.94 312.1 126.68Z" fill="#3975EB"/>
<path d="M318.479 125.62C317.479 120.38 322.169 105.62 333.559 104.62C338.839 104.17 341.279 109.85 338.559 110.79C343.559 110.73 346.759 117.34 342.099 118.33C345.779 120.69 344.869 125.53 339.619 127.91C335.709 129.71 319.829 132.88 318.479 125.62Z" fill="#263238"/>
<path d="M330.648 131.25C326.978 131.25 323.148 130.71 320.768 129.12C320.103 128.719 319.543 128.165 319.134 127.504C318.725 126.843 318.48 126.095 318.418 125.32C318.415 125.254 318.437 125.19 318.48 125.14C318.523 125.09 318.583 125.058 318.648 125.05C318.681 125.046 318.715 125.049 318.747 125.058C318.779 125.068 318.809 125.084 318.834 125.105C318.859 125.127 318.88 125.154 318.895 125.184C318.909 125.214 318.917 125.247 318.918 125.28C318.978 125.979 319.203 126.654 319.573 127.25C319.943 127.846 320.448 128.346 321.048 128.71C325.578 131.71 336.048 130.71 339.308 129.71C342.128 128.79 344.038 127 344.418 124.94C344.537 124.184 344.443 123.41 344.149 122.704C343.854 121.998 343.369 121.387 342.748 120.94C342.724 120.918 342.705 120.89 342.692 120.86C342.679 120.83 342.672 120.798 342.672 120.765C342.672 120.732 342.679 120.7 342.692 120.67C342.705 120.64 342.724 120.612 342.748 120.59C342.795 120.544 342.858 120.519 342.923 120.519C342.989 120.519 343.051 120.544 343.098 120.59C343.796 121.099 344.339 121.793 344.666 122.593C344.992 123.393 345.09 124.268 344.948 125.12C344.538 127.37 342.508 129.29 339.508 130.27C336.613 131 333.632 131.329 330.648 131.25Z" fill="#263238"/>
<path d="M298.32 140C297.389 141.306 297.005 142.924 297.25 144.51C297.58 146.61 299.62 146.75 301.1 145.41C302.58 144.07 303.87 141.65 302.78 139.91C302.538 139.534 302.203 139.226 301.809 139.016C301.414 138.806 300.972 138.7 300.525 138.71C300.078 138.719 299.641 138.842 299.255 139.068C298.869 139.293 298.547 139.614 298.32 140Z" fill="#7F3E3B"/>
<path d="M298.889 219.16C298.889 219.16 303.749 276.65 308.799 309.05C312.869 335.22 316.089 396.39 316.089 396.39H327.509C327.509 396.39 331.569 337.05 329.509 311.17C324.279 245.67 335.949 240.33 323.939 219.17L298.889 219.16Z" fill="#3975EB"/>
<path opacity="0.4" d="M313.268 240.89C308.743 245.64 305.09 251.151 302.479 257.17C303.809 270.09 305.389 284.43 307.069 296.99C313.962 279.143 316.099 259.811 313.268 240.89Z" fill="black"/>
<path d="M290.899 218.8C290.899 218.8 280.349 281.59 278.689 309.89C282.829 336.06 299.769 391.38 299.769 391.38L310.159 387.61C310.159 387.61 304.409 327.29 298.159 310.78C312.229 263.41 322.569 251.43 319.559 219.16C312.349 219.16 290.899 218.8 290.899 218.8Z" fill="#3975EB"/>
<path d="M298.38 394.14L312.42 390.33L311.62 384.73L296.59 388.8L298.38 394.14Z" fill="#263238"/>
<path d="M314.519 396.62H329.069L329.829 391.52L314.439 391L314.519 396.62Z" fill="#263238"/>
<path d="M324.44 217.16L325.97 220.21C326.09 220.45 325.81 220.69 325.42 220.69H289.74C289.44 220.69 289.18 220.54 289.16 220.34L288.85 217.34C288.85 217.13 289.1 216.95 289.43 216.95H323.88C323.983 216.936 324.088 216.948 324.186 216.984C324.284 217.021 324.371 217.081 324.44 217.16Z" fill="#3975EB"/>
<path opacity="0.5" d="M324.44 217.16L325.97 220.21C326.09 220.45 325.81 220.69 325.42 220.69H289.74C289.44 220.69 289.18 220.54 289.16 220.34L288.85 217.34C288.85 217.13 289.1 216.95 289.43 216.95H323.88C323.983 216.936 324.088 216.948 324.186 216.984C324.284 217.021 324.371 217.081 324.44 217.16Z" fill="black"/>
<path d="M319.81 221H320.73C320.92 221 321.06 220.9 321.05 220.79L320.61 216.79C320.61 216.67 320.44 216.58 320.26 216.58H319.33C319.15 216.58 319.01 216.67 319.02 216.79L319.45 220.79C319.47 220.92 319.63 221 319.81 221Z" fill="#3975EB"/>
<path d="M307.429 191.88C307.319 191.878 307.212 191.842 307.124 191.775C307.036 191.709 306.971 191.616 306.939 191.51C303.679 179.45 296.939 169.51 293.669 168.01C293.415 167.854 293.11 167.804 292.819 167.87C292.759 167.902 292.692 167.921 292.624 167.926C292.556 167.932 292.488 167.923 292.423 167.901C292.359 167.878 292.299 167.843 292.249 167.797C292.199 167.751 292.158 167.695 292.13 167.633C292.102 167.571 292.087 167.504 292.086 167.435C292.085 167.367 292.098 167.299 292.124 167.236C292.15 167.173 292.189 167.116 292.238 167.069C292.287 167.021 292.345 166.984 292.409 166.96C292.682 166.86 292.974 166.82 293.265 166.844C293.555 166.869 293.836 166.956 294.089 167.1C297.549 168.74 304.389 178.54 307.809 190.87C310.259 190.87 314.039 190.54 314.959 190.46C316.099 189.1 324.479 178.62 321.349 167.15C321.331 167.087 321.326 167.021 321.334 166.956C321.342 166.891 321.362 166.828 321.395 166.771C321.428 166.714 321.471 166.664 321.524 166.625C321.576 166.585 321.636 166.556 321.699 166.54C321.826 166.506 321.962 166.524 322.076 166.59C322.19 166.655 322.274 166.763 322.309 166.89C325.799 179.65 315.679 191.16 315.569 191.27C315.53 191.319 315.481 191.359 315.426 191.388C315.371 191.417 315.311 191.435 315.249 191.44C315.199 191.44 310.209 191.88 307.429 191.88Z" fill="#3975EB"/>
<path d="M323.999 198.94C318.549 188.73 316.319 188.01 315.349 184.73C316.084 182.896 317.133 181.204 318.449 179.73C317.789 179.54 316.369 179.26 315.449 179.09C315.549 178.64 315.659 178.2 315.759 177.77C314.758 177.658 313.745 177.706 312.759 177.91V176.91C311.489 176.634 310.184 176.55 308.889 176.66C309.002 177.134 309.112 177.614 309.219 178.1C308.219 178.29 306.699 178.6 305.969 178.81C307.387 180.417 308.429 182.32 309.019 184.38C306.079 189.43 294.659 221.89 313.239 224.38C331.819 226.87 329.439 209.16 323.999 198.94Z" fill="#3975EB"/>
<path opacity="0.4" d="M323.999 198.94C318.549 188.73 316.319 188.01 315.349 184.73C316.084 182.896 317.133 181.204 318.449 179.73C317.789 179.54 316.369 179.26 315.449 179.09C315.549 178.64 315.659 178.2 315.759 177.77C314.758 177.658 313.745 177.706 312.759 177.91V176.91C311.489 176.634 310.184 176.55 308.889 176.66C309.002 177.134 309.112 177.614 309.219 178.1C308.219 178.29 306.699 178.6 305.969 178.81C307.387 180.417 308.429 182.32 309.019 184.38C306.079 189.43 294.659 221.89 313.239 224.38C331.819 226.87 329.439 209.16 323.999 198.94Z" fill="white"/>
<path d="M308.258 183.41C308.143 183.925 308.092 184.452 308.108 184.98C308.108 185.35 309.108 185.6 310.218 185.71C311.328 185.82 315.988 186 315.838 185.48C315.688 184.96 316.068 184.25 316.088 183.81C316.108 183.37 314.238 183.35 312.668 183.41C311.098 183.47 308.568 182.85 308.258 183.41Z" fill="#3975EB"/>
<path d="M297.45 221H298.37C298.55 221 298.69 220.9 298.68 220.79L298.25 216.79C298.25 216.67 298.08 216.58 297.89 216.58H297C296.82 216.58 296.68 216.67 296.69 216.79L297.12 220.79C297.1 220.92 297.26 221 297.45 221Z" fill="#3975EB"/>
</svg>
