<svg width="905" height="301" viewBox="0 0 905 301" fill="none" xmlns="http://www.w3.org/2000/svg">
<path d="M315.185 287.68C343.936 275.771 357.589 242.81 345.68 214.059C333.771 185.308 300.809 171.655 272.058 183.564C243.307 195.473 229.654 228.434 241.563 257.185C253.472 285.936 286.434 299.59 315.185 287.68Z" fill="#F5F5F5"/>
<path d="M683.975 96.7744L684.73 95.061C687.931 88.0519 689.161 80.3026 688.288 72.6514C687.414 65.0002 684.471 57.7385 679.775 51.6518C678.535 50.0746 677.179 48.5929 675.718 47.2191C670.349 42.2916 663.845 38.7735 656.786 36.9778C649.727 35.182 642.331 35.1642 635.256 36.9258C626.932 39.0609 618.839 43.6708 610.342 42.6434C599.299 41.3033 591.932 31.1015 585.958 21.8102C579.984 12.5188 572.562 2.3249 561.551 1.04769C554.625 0.243087 547.741 3.30432 542.132 7.59045C527.444 19.0134 521.163 39.1249 523.72 57.3643C526.276 75.6036 536.683 91.9558 549.889 104.696C568.392 122.531 593.47 134.281 619.372 133.819C645.274 133.358 671.399 119.554 683.975 96.7744Z" fill="#F5F5F5"/>
<rect x="281.5" y="63.5" width="342" height="194" rx="7.5" fill="white" stroke="#D9D9D9"/>
<path d="M329.864 118.364H331.273V126.682C331.273 127.424 331.136 128.055 330.864 128.574C330.591 129.093 330.206 129.487 329.71 129.756C329.214 130.025 328.629 130.159 327.955 130.159C327.318 130.159 326.752 130.044 326.256 129.812C325.759 129.578 325.369 129.244 325.085 128.812C324.801 128.381 324.659 127.867 324.659 127.273H326.045C326.045 127.602 326.127 127.89 326.29 128.136C326.456 128.379 326.684 128.568 326.972 128.705C327.259 128.841 327.587 128.909 327.955 128.909C328.36 128.909 328.705 128.824 328.989 128.653C329.273 128.483 329.489 128.233 329.636 127.903C329.788 127.57 329.864 127.163 329.864 126.682V118.364ZM337.156 130.182C336.368 130.182 335.677 129.994 335.082 129.619C334.491 129.244 334.029 128.72 333.696 128.045C333.366 127.371 333.202 126.583 333.202 125.682C333.202 124.773 333.366 123.979 333.696 123.301C334.029 122.623 334.491 122.097 335.082 121.722C335.677 121.347 336.368 121.159 337.156 121.159C337.944 121.159 338.634 121.347 339.224 121.722C339.819 122.097 340.281 122.623 340.611 123.301C340.944 123.979 341.111 124.773 341.111 125.682C341.111 126.583 340.944 127.371 340.611 128.045C340.281 128.72 339.819 129.244 339.224 129.619C338.634 129.994 337.944 130.182 337.156 130.182ZM337.156 128.977C337.755 128.977 338.247 128.824 338.634 128.517C339.02 128.21 339.306 127.807 339.491 127.307C339.677 126.807 339.77 126.265 339.77 125.682C339.77 125.098 339.677 124.555 339.491 124.051C339.306 123.547 339.02 123.14 338.634 122.83C338.247 122.519 337.755 122.364 337.156 122.364C336.558 122.364 336.065 122.519 335.679 122.83C335.293 123.14 335.007 123.547 334.821 124.051C334.635 124.555 334.543 125.098 334.543 125.682C334.543 126.265 334.635 126.807 334.821 127.307C335.007 127.807 335.293 128.21 335.679 128.517C336.065 128.824 336.558 128.977 337.156 128.977ZM344.195 124.75V130H342.854V118.364H344.195V122.636H344.308C344.513 122.186 344.82 121.828 345.229 121.562C345.642 121.294 346.191 121.159 346.876 121.159C347.471 121.159 347.992 121.278 348.439 121.517C348.886 121.752 349.232 122.114 349.479 122.602C349.729 123.087 349.854 123.705 349.854 124.455V130H348.513V124.545C348.513 123.852 348.333 123.316 347.973 122.938C347.617 122.555 347.123 122.364 346.49 122.364C346.051 122.364 345.657 122.456 345.308 122.642C344.963 122.828 344.691 123.098 344.49 123.455C344.293 123.811 344.195 124.242 344.195 124.75ZM353.344 124.75V130H352.003V121.273H353.298V122.636H353.412C353.616 122.193 353.927 121.837 354.344 121.568C354.76 121.295 355.298 121.159 355.957 121.159C356.548 121.159 357.065 121.28 357.508 121.523C357.952 121.761 358.296 122.125 358.543 122.614C358.789 123.098 358.912 123.712 358.912 124.455V130H357.571V124.545C357.571 123.86 357.393 123.326 357.037 122.943C356.681 122.557 356.192 122.364 355.571 122.364C355.143 122.364 354.76 122.456 354.423 122.642C354.09 122.828 353.827 123.098 353.633 123.455C353.44 123.811 353.344 124.242 353.344 124.75ZM365.254 130V121.273H366.55V122.591H366.641C366.8 122.159 367.087 121.809 367.504 121.54C367.921 121.271 368.391 121.136 368.913 121.136C369.012 121.136 369.135 121.138 369.283 121.142C369.43 121.146 369.542 121.152 369.618 121.159V122.523C369.572 122.511 369.468 122.494 369.305 122.472C369.146 122.445 368.978 122.432 368.8 122.432C368.375 122.432 367.997 122.521 367.663 122.699C367.334 122.873 367.072 123.116 366.879 123.426C366.69 123.733 366.595 124.083 366.595 124.477V130H365.254ZM374.297 130.182C373.456 130.182 372.73 129.996 372.121 129.625C371.515 129.25 371.047 128.727 370.717 128.057C370.391 127.383 370.229 126.598 370.229 125.705C370.229 124.811 370.391 124.023 370.717 123.341C371.047 122.655 371.505 122.121 372.092 121.739C372.683 121.352 373.372 121.159 374.16 121.159C374.615 121.159 375.064 121.235 375.507 121.386C375.95 121.538 376.354 121.784 376.717 122.125C377.081 122.462 377.371 122.909 377.587 123.466C377.802 124.023 377.91 124.708 377.91 125.523V126.091H371.183V124.932H376.547C376.547 124.439 376.448 124 376.251 123.614C376.058 123.227 375.782 122.922 375.422 122.699C375.066 122.475 374.645 122.364 374.16 122.364C373.626 122.364 373.164 122.496 372.774 122.761C372.388 123.023 372.09 123.364 371.882 123.784C371.674 124.205 371.569 124.655 371.569 125.136V125.909C371.569 126.568 371.683 127.127 371.91 127.585C372.141 128.04 372.462 128.386 372.871 128.625C373.28 128.86 373.755 128.977 374.297 128.977C374.649 128.977 374.967 128.928 375.251 128.83C375.539 128.727 375.787 128.576 375.996 128.375C376.204 128.17 376.365 127.917 376.479 127.614L377.774 127.977C377.638 128.417 377.408 128.803 377.087 129.136C376.765 129.466 376.367 129.723 375.893 129.909C375.42 130.091 374.888 130.182 374.297 130.182ZM385.601 133.273V128.659H385.487C385.389 128.818 385.248 129.019 385.067 129.261C384.885 129.5 384.625 129.714 384.288 129.903C383.951 130.089 383.502 130.182 382.942 130.182C382.214 130.182 381.572 129.998 381.015 129.631C380.459 129.259 380.023 128.737 379.709 128.062C379.394 127.384 379.237 126.583 379.237 125.659C379.237 124.742 379.394 123.947 379.709 123.273C380.023 122.598 380.461 122.078 381.021 121.71C381.582 121.343 382.229 121.159 382.964 121.159C383.533 121.159 383.981 121.254 384.311 121.443C384.644 121.629 384.898 121.841 385.072 122.08C385.25 122.314 385.389 122.508 385.487 122.659H385.646V121.273H386.942V133.273H385.601ZM383.123 128.977C383.661 128.977 384.116 128.837 384.487 128.557C384.858 128.273 385.14 127.881 385.334 127.381C385.527 126.877 385.623 126.295 385.623 125.636C385.623 124.985 385.529 124.415 385.339 123.926C385.15 123.434 384.87 123.051 384.498 122.778C384.127 122.502 383.669 122.364 383.123 122.364C382.555 122.364 382.082 122.509 381.703 122.801C381.328 123.089 381.046 123.481 380.856 123.977C380.671 124.47 380.578 125.023 380.578 125.636C380.578 126.258 380.673 126.822 380.862 127.33C381.055 127.833 381.339 128.235 381.714 128.534C382.093 128.83 382.563 128.977 383.123 128.977ZM394.592 126.432V121.273H395.933V130H394.592V128.523H394.501C394.297 128.966 393.979 129.343 393.547 129.653C393.115 129.96 392.569 130.114 391.91 130.114C391.365 130.114 390.88 129.994 390.456 129.756C390.032 129.513 389.698 129.15 389.456 128.665C389.213 128.176 389.092 127.561 389.092 126.818V121.273H390.433V126.727C390.433 127.364 390.611 127.871 390.967 128.25C391.327 128.629 391.785 128.818 392.342 128.818C392.675 128.818 393.014 128.733 393.359 128.562C393.708 128.392 393.999 128.131 394.234 127.778C394.473 127.426 394.592 126.977 394.592 126.432ZM401.744 130.182C400.903 130.182 400.178 129.996 399.568 129.625C398.962 129.25 398.494 128.727 398.165 128.057C397.839 127.383 397.676 126.598 397.676 125.705C397.676 124.811 397.839 124.023 398.165 123.341C398.494 122.655 398.952 122.121 399.54 121.739C400.13 121.352 400.82 121.159 401.608 121.159C402.062 121.159 402.511 121.235 402.954 121.386C403.398 121.538 403.801 121.784 404.165 122.125C404.528 122.462 404.818 122.909 405.034 123.466C405.25 124.023 405.358 124.708 405.358 125.523V126.091H398.63V124.932H403.994C403.994 124.439 403.896 124 403.699 123.614C403.505 123.227 403.229 122.922 402.869 122.699C402.513 122.475 402.093 122.364 401.608 122.364C401.074 122.364 400.612 122.496 400.221 122.761C399.835 123.023 399.538 123.364 399.329 123.784C399.121 124.205 399.017 124.655 399.017 125.136V125.909C399.017 126.568 399.13 127.127 399.358 127.585C399.589 128.04 399.909 128.386 400.318 128.625C400.727 128.86 401.202 128.977 401.744 128.977C402.096 128.977 402.415 128.928 402.699 128.83C402.987 128.727 403.235 128.576 403.443 128.375C403.651 128.17 403.812 127.917 403.926 127.614L405.221 127.977C405.085 128.417 404.856 128.803 404.534 129.136C404.212 129.466 403.814 129.723 403.341 129.909C402.867 130.091 402.335 130.182 401.744 130.182ZM413.275 123.227L412.071 123.568C411.995 123.367 411.883 123.172 411.736 122.983C411.592 122.79 411.395 122.631 411.145 122.506C410.895 122.381 410.575 122.318 410.184 122.318C409.65 122.318 409.205 122.441 408.849 122.688C408.497 122.93 408.321 123.239 408.321 123.614C408.321 123.947 408.442 124.21 408.684 124.403C408.927 124.597 409.306 124.758 409.821 124.886L411.116 125.205C411.897 125.394 412.478 125.684 412.861 126.074C413.243 126.46 413.434 126.958 413.434 127.568C413.434 128.068 413.29 128.515 413.003 128.909C412.719 129.303 412.321 129.614 411.809 129.841C411.298 130.068 410.703 130.182 410.025 130.182C409.135 130.182 408.398 129.989 407.815 129.602C407.232 129.216 406.862 128.652 406.707 127.909L407.98 127.591C408.101 128.061 408.33 128.413 408.667 128.648C409.008 128.883 409.453 129 410.003 129C410.628 129 411.124 128.867 411.491 128.602C411.862 128.333 412.048 128.011 412.048 127.636C412.048 127.333 411.942 127.08 411.73 126.875C411.518 126.667 411.192 126.511 410.753 126.409L409.298 126.068C408.499 125.879 407.912 125.585 407.537 125.188C407.165 124.786 406.98 124.284 406.98 123.682C406.98 123.189 407.118 122.754 407.395 122.375C407.675 121.996 408.056 121.699 408.537 121.483C409.022 121.267 409.571 121.159 410.184 121.159C411.048 121.159 411.726 121.348 412.219 121.727C412.715 122.106 413.067 122.606 413.275 123.227ZM418.944 121.273V122.409H414.422V121.273H418.944ZM415.74 119.182H417.081V127.5C417.081 127.879 417.136 128.163 417.245 128.352C417.359 128.538 417.503 128.663 417.677 128.727C417.855 128.788 418.043 128.818 418.24 128.818C418.388 128.818 418.509 128.811 418.603 128.795C418.698 128.777 418.774 128.761 418.831 128.75L419.103 129.955C419.013 129.989 418.886 130.023 418.723 130.057C418.56 130.095 418.353 130.114 418.103 130.114C417.725 130.114 417.353 130.032 416.99 129.869C416.63 129.706 416.331 129.458 416.092 129.125C415.857 128.792 415.74 128.371 415.74 127.864V119.182ZM424.223 130.182C423.382 130.182 422.656 129.996 422.047 129.625C421.441 129.25 420.973 128.727 420.643 128.057C420.317 127.383 420.155 126.598 420.155 125.705C420.155 124.811 420.317 124.023 420.643 123.341C420.973 122.655 421.431 122.121 422.018 121.739C422.609 121.352 423.298 121.159 424.086 121.159C424.541 121.159 424.99 121.235 425.433 121.386C425.876 121.538 426.28 121.784 426.643 122.125C427.007 122.462 427.297 122.909 427.513 123.466C427.728 124.023 427.836 124.708 427.836 125.523V126.091H421.109V124.932H426.473C426.473 124.439 426.374 124 426.177 123.614C425.984 123.227 425.708 122.922 425.348 122.699C424.992 122.475 424.571 122.364 424.086 122.364C423.552 122.364 423.09 122.496 422.7 122.761C422.314 123.023 422.016 123.364 421.808 123.784C421.6 124.205 421.495 124.655 421.495 125.136V125.909C421.495 126.568 421.609 127.127 421.836 127.585C422.067 128.04 422.388 128.386 422.797 128.625C423.206 128.86 423.681 128.977 424.223 128.977C424.575 128.977 424.893 128.928 425.177 128.83C425.465 128.727 425.713 128.576 425.922 128.375C426.13 128.17 426.291 127.917 426.405 127.614L427.7 127.977C427.564 128.417 427.334 128.803 427.013 129.136C426.691 129.466 426.293 129.723 425.819 129.909C425.346 130.091 424.814 130.182 424.223 130.182ZM432.868 130.182C432.14 130.182 431.498 129.998 430.941 129.631C430.385 129.259 429.949 128.737 429.635 128.062C429.32 127.384 429.163 126.583 429.163 125.659C429.163 124.742 429.32 123.947 429.635 123.273C429.949 122.598 430.387 122.078 430.947 121.71C431.508 121.343 432.155 121.159 432.89 121.159C433.459 121.159 433.907 121.254 434.237 121.443C434.57 121.629 434.824 121.841 434.998 122.08C435.176 122.314 435.315 122.508 435.413 122.659H435.527V118.364H436.868V130H435.572V128.659H435.413C435.315 128.818 435.174 129.019 434.993 129.261C434.811 129.5 434.551 129.714 434.214 129.903C433.877 130.089 433.428 130.182 432.868 130.182ZM433.049 128.977C433.587 128.977 434.042 128.837 434.413 128.557C434.784 128.273 435.066 127.881 435.26 127.381C435.453 126.877 435.549 126.295 435.549 125.636C435.549 124.985 435.455 124.415 435.265 123.926C435.076 123.434 434.796 123.051 434.424 122.778C434.053 122.502 433.595 122.364 433.049 122.364C432.481 122.364 432.008 122.509 431.629 122.801C431.254 123.089 430.972 123.481 430.782 123.977C430.597 124.47 430.504 125.023 430.504 125.636C430.504 126.258 430.599 126.822 430.788 127.33C430.981 127.833 431.265 128.235 431.64 128.534C432.019 128.83 432.489 128.977 433.049 128.977ZM447.197 121.273V122.409H442.674V121.273H447.197ZM443.993 119.182H445.333V127.5C445.333 127.879 445.388 128.163 445.498 128.352C445.612 128.538 445.756 128.663 445.93 128.727C446.108 128.788 446.296 128.818 446.493 128.818C446.64 128.818 446.761 128.811 446.856 128.795C446.951 128.777 447.027 128.761 447.083 128.75L447.356 129.955C447.265 129.989 447.138 130.023 446.976 130.057C446.813 130.095 446.606 130.114 446.356 130.114C445.977 130.114 445.606 130.032 445.243 129.869C444.883 129.706 444.583 129.458 444.345 129.125C444.11 128.792 443.993 128.371 443.993 127.864V119.182ZM452.362 130.182C451.574 130.182 450.883 129.994 450.288 129.619C449.697 129.244 449.235 128.72 448.902 128.045C448.572 127.371 448.407 126.583 448.407 125.682C448.407 124.773 448.572 123.979 448.902 123.301C449.235 122.623 449.697 122.097 450.288 121.722C450.883 121.347 451.574 121.159 452.362 121.159C453.15 121.159 453.839 121.347 454.43 121.722C455.025 122.097 455.487 122.623 455.816 123.301C456.15 123.979 456.316 124.773 456.316 125.682C456.316 126.583 456.15 127.371 455.816 128.045C455.487 128.72 455.025 129.244 454.43 129.619C453.839 129.994 453.15 130.182 452.362 130.182ZM452.362 128.977C452.96 128.977 453.453 128.824 453.839 128.517C454.225 128.21 454.511 127.807 454.697 127.307C454.883 126.807 454.975 126.265 454.975 125.682C454.975 125.098 454.883 124.555 454.697 124.051C454.511 123.547 454.225 123.14 453.839 122.83C453.453 122.519 452.96 122.364 452.362 122.364C451.763 122.364 451.271 122.519 450.885 122.83C450.498 123.14 450.212 123.547 450.027 124.051C449.841 124.555 449.748 125.098 449.748 125.682C449.748 126.265 449.841 126.807 450.027 127.307C450.212 127.807 450.498 128.21 450.885 128.517C451.271 128.824 451.763 128.977 452.362 128.977ZM462.437 130V118.364H463.778V122.659H463.892C463.99 122.508 464.126 122.314 464.301 122.08C464.479 121.841 464.733 121.629 465.062 121.443C465.395 121.254 465.846 121.159 466.414 121.159C467.149 121.159 467.797 121.343 468.358 121.71C468.918 122.078 469.356 122.598 469.67 123.273C469.984 123.947 470.142 124.742 470.142 125.659C470.142 126.583 469.984 127.384 469.67 128.062C469.356 128.737 468.92 129.259 468.363 129.631C467.806 129.998 467.164 130.182 466.437 130.182C465.876 130.182 465.428 130.089 465.09 129.903C464.753 129.714 464.494 129.5 464.312 129.261C464.13 129.019 463.99 128.818 463.892 128.659H463.733V130H462.437ZM463.755 125.636C463.755 126.295 463.852 126.877 464.045 127.381C464.238 127.881 464.52 128.273 464.892 128.557C465.263 128.837 465.717 128.977 466.255 128.977C466.816 128.977 467.284 128.83 467.659 128.534C468.037 128.235 468.322 127.833 468.511 127.33C468.704 126.822 468.801 126.258 468.801 125.636C468.801 125.023 468.706 124.47 468.517 123.977C468.331 123.481 468.049 123.089 467.67 122.801C467.295 122.509 466.823 122.364 466.255 122.364C465.71 122.364 465.251 122.502 464.88 122.778C464.509 123.051 464.229 123.434 464.039 123.926C463.85 124.415 463.755 124.985 463.755 125.636ZM475.434 130.182C474.646 130.182 473.955 129.994 473.36 129.619C472.769 129.244 472.307 128.72 471.974 128.045C471.644 127.371 471.48 126.583 471.48 125.682C471.48 124.773 471.644 123.979 471.974 123.301C472.307 122.623 472.769 122.097 473.36 121.722C473.955 121.347 474.646 121.159 475.434 121.159C476.222 121.159 476.911 121.347 477.502 121.722C478.097 122.097 478.559 122.623 478.889 123.301C479.222 123.979 479.389 124.773 479.389 125.682C479.389 126.583 479.222 127.371 478.889 128.045C478.559 128.72 478.097 129.244 477.502 129.619C476.911 129.994 476.222 130.182 475.434 130.182ZM475.434 128.977C476.033 128.977 476.525 128.824 476.911 128.517C477.298 128.21 477.584 127.807 477.769 127.307C477.955 126.807 478.048 126.265 478.048 125.682C478.048 125.098 477.955 124.555 477.769 124.051C477.584 123.547 477.298 123.14 476.911 122.83C476.525 122.519 476.033 122.364 475.434 122.364C474.836 122.364 474.343 122.519 473.957 122.83C473.571 123.14 473.285 123.547 473.099 124.051C472.913 124.555 472.821 125.098 472.821 125.682C472.821 126.265 472.913 126.807 473.099 127.307C473.285 127.807 473.571 128.21 473.957 128.517C474.343 128.824 474.836 128.977 475.434 128.977ZM484.677 130.182C483.889 130.182 483.198 129.994 482.603 129.619C482.012 129.244 481.55 128.72 481.217 128.045C480.887 127.371 480.723 126.583 480.723 125.682C480.723 124.773 480.887 123.979 481.217 123.301C481.55 122.623 482.012 122.097 482.603 121.722C483.198 121.347 483.889 121.159 484.677 121.159C485.465 121.159 486.154 121.347 486.745 121.722C487.34 122.097 487.802 122.623 488.132 123.301C488.465 123.979 488.632 124.773 488.632 125.682C488.632 126.583 488.465 127.371 488.132 128.045C487.802 128.72 487.34 129.244 486.745 129.619C486.154 129.994 485.465 130.182 484.677 130.182ZM484.677 128.977C485.276 128.977 485.768 128.824 486.154 128.517C486.541 128.21 486.827 127.807 487.012 127.307C487.198 126.807 487.291 126.265 487.291 125.682C487.291 125.098 487.198 124.555 487.012 124.051C486.827 123.547 486.541 123.14 486.154 122.83C485.768 122.519 485.276 122.364 484.677 122.364C484.079 122.364 483.586 122.519 483.2 122.83C482.813 123.14 482.527 123.547 482.342 124.051C482.156 124.555 482.063 125.098 482.063 125.682C482.063 126.265 482.156 126.807 482.342 127.307C482.527 127.807 482.813 128.21 483.2 128.517C483.586 128.824 484.079 128.977 484.677 128.977ZM491.625 126.818L491.602 125.159H491.875L495.693 121.273H497.352L493.284 125.386H493.17L491.625 126.818ZM490.375 130V118.364H491.715V130H490.375ZM495.92 130L492.511 125.682L493.465 124.75L497.625 130H495.92ZM503.833 133.273C503.606 133.273 503.403 133.254 503.225 133.216C503.047 133.182 502.924 133.148 502.856 133.114L503.197 131.932C503.523 132.015 503.811 132.045 504.061 132.023C504.311 132 504.532 131.888 504.725 131.688C504.922 131.491 505.102 131.17 505.265 130.727L505.515 130.045L502.288 121.273H503.742L506.151 128.227H506.242L508.651 121.273H510.106L506.401 131.273C506.235 131.723 506.028 132.097 505.782 132.392C505.536 132.691 505.25 132.913 504.924 133.057C504.602 133.201 504.239 133.273 503.833 133.273ZM514.805 130.182C514.017 130.182 513.326 129.994 512.731 129.619C512.14 129.244 511.678 128.72 511.345 128.045C511.015 127.371 510.85 126.583 510.85 125.682C510.85 124.773 511.015 123.979 511.345 123.301C511.678 122.623 512.14 122.097 512.731 121.722C513.326 121.347 514.017 121.159 514.805 121.159C515.593 121.159 516.282 121.347 516.873 121.722C517.468 122.097 517.93 122.623 518.259 123.301C518.593 123.979 518.759 124.773 518.759 125.682C518.759 126.583 518.593 127.371 518.259 128.045C517.93 128.72 517.468 129.244 516.873 129.619C516.282 129.994 515.593 130.182 514.805 130.182ZM514.805 128.977C515.403 128.977 515.896 128.824 516.282 128.517C516.668 128.21 516.954 127.807 517.14 127.307C517.326 126.807 517.418 126.265 517.418 125.682C517.418 125.098 517.326 124.555 517.14 124.051C516.954 123.547 516.668 123.14 516.282 122.83C515.896 122.519 515.403 122.364 514.805 122.364C514.206 122.364 513.714 122.519 513.328 122.83C512.941 123.14 512.655 123.547 512.47 124.051C512.284 124.555 512.191 125.098 512.191 125.682C512.191 126.265 512.284 126.807 512.47 127.307C512.655 127.807 512.941 128.21 513.328 128.517C513.714 128.824 514.206 128.977 514.805 128.977ZM526.002 126.432V121.273H527.343V130H526.002V128.523H525.911C525.707 128.966 525.389 129.343 524.957 129.653C524.525 129.96 523.98 130.114 523.32 130.114C522.775 130.114 522.29 129.994 521.866 129.756C521.442 129.513 521.108 129.15 520.866 128.665C520.623 128.176 520.502 127.561 520.502 126.818V121.273H521.843V126.727C521.843 127.364 522.021 127.871 522.377 128.25C522.737 128.629 523.195 128.818 523.752 128.818C524.086 128.818 524.425 128.733 524.769 128.562C525.118 128.392 525.409 128.131 525.644 127.778C525.883 127.426 526.002 126.977 526.002 126.432ZM529.495 130V121.273H530.791V122.591H530.882C531.041 122.159 531.328 121.809 531.745 121.54C532.162 121.271 532.632 121.136 533.154 121.136C533.253 121.136 533.376 121.138 533.524 121.142C533.671 121.146 533.783 121.152 533.859 121.159V122.523C533.813 122.511 533.709 122.494 533.546 122.472C533.387 122.445 533.219 122.432 533.041 122.432C532.616 122.432 532.238 122.521 531.904 122.699C531.575 122.873 531.313 123.116 531.12 123.426C530.931 123.733 530.836 124.083 530.836 124.477V130H529.495ZM543.136 121.273V122.409H538.613V121.273H543.136ZM539.931 119.182H541.272V127.5C541.272 127.879 541.327 128.163 541.437 128.352C541.551 128.538 541.694 128.663 541.869 128.727C542.047 128.788 542.234 128.818 542.431 128.818C542.579 128.818 542.7 128.811 542.795 128.795C542.89 128.777 542.965 128.761 543.022 128.75L543.295 129.955C543.204 129.989 543.077 130.023 542.914 130.057C542.751 130.095 542.545 130.114 542.295 130.114C541.916 130.114 541.545 130.032 541.181 129.869C540.821 129.706 540.522 129.458 540.283 129.125C540.049 128.792 539.931 128.371 539.931 127.864V119.182ZM544.849 130V121.273H546.144V122.591H546.235C546.394 122.159 546.682 121.809 547.099 121.54C547.515 121.271 547.985 121.136 548.508 121.136C548.606 121.136 548.729 121.138 548.877 121.142C549.025 121.146 549.137 121.152 549.212 121.159V122.523C549.167 122.511 549.063 122.494 548.9 122.472C548.741 122.445 548.572 122.432 548.394 122.432C547.97 122.432 547.591 122.521 547.258 122.699C546.928 122.873 546.667 123.116 546.474 123.426C546.284 123.733 546.19 124.083 546.19 124.477V130H544.849ZM555.998 126.432V121.273H557.339V130H555.998V128.523H555.907C555.702 128.966 555.384 129.343 554.952 129.653C554.521 129.96 553.975 130.114 553.316 130.114C552.771 130.114 552.286 129.994 551.862 129.756C551.437 129.513 551.104 129.15 550.862 128.665C550.619 128.176 550.498 127.561 550.498 126.818V121.273H551.839V126.727C551.839 127.364 552.017 127.871 552.373 128.25C552.733 128.629 553.191 128.818 553.748 128.818C554.081 128.818 554.42 128.733 554.765 128.562C555.113 128.392 555.405 128.131 555.64 127.778C555.879 127.426 555.998 126.977 555.998 126.432ZM563.036 130.182C562.218 130.182 561.514 129.989 560.923 129.602C560.332 129.216 559.877 128.684 559.559 128.006C559.241 127.328 559.082 126.553 559.082 125.682C559.082 124.795 559.245 124.013 559.57 123.335C559.9 122.653 560.358 122.121 560.945 121.739C561.536 121.352 562.226 121.159 563.014 121.159C563.627 121.159 564.18 121.273 564.673 121.5C565.165 121.727 565.568 122.045 565.883 122.455C566.197 122.864 566.392 123.341 566.468 123.886H565.127C565.025 123.489 564.798 123.136 564.445 122.83C564.097 122.519 563.627 122.364 563.036 122.364C562.514 122.364 562.055 122.5 561.661 122.773C561.271 123.042 560.966 123.422 560.746 123.915C560.531 124.403 560.423 124.977 560.423 125.636C560.423 126.311 560.529 126.898 560.741 127.398C560.957 127.898 561.26 128.286 561.65 128.562C562.044 128.839 562.506 128.977 563.036 128.977C563.385 128.977 563.701 128.917 563.985 128.795C564.269 128.674 564.51 128.5 564.707 128.273C564.904 128.045 565.044 127.773 565.127 127.455H566.468C566.392 127.97 566.205 128.434 565.906 128.847C565.61 129.256 565.218 129.581 564.729 129.824C564.245 130.062 563.68 130.182 563.036 130.182ZM569.374 126.818L569.352 125.159H569.624L573.442 121.273H575.102L571.033 125.386H570.92L569.374 126.818ZM568.124 130V118.364H569.465V130H568.124ZM573.67 130L570.261 125.682L571.215 124.75L575.374 130H573.67ZM577.501 130.091C577.22 130.091 576.98 129.991 576.779 129.79C576.578 129.589 576.478 129.348 576.478 129.068C576.478 128.788 576.578 128.547 576.779 128.347C576.98 128.146 577.22 128.045 577.501 128.045C577.781 128.045 578.022 128.146 578.222 128.347C578.423 128.547 578.523 128.788 578.523 129.068C578.523 129.254 578.476 129.424 578.381 129.58C578.29 129.735 578.167 129.86 578.012 129.955C577.861 130.045 577.69 130.091 577.501 130.091Z" fill="#1E1E1E"/>
<rect x="394" y="173" width="117" height="48" rx="4" fill="#3975EB"/>
<path d="M427.586 192.141L424.188 202H422.133L426.414 190.625H427.727L427.586 192.141ZM430.43 202L427.023 192.141L426.875 190.625H428.195L432.492 202H430.43ZM430.266 197.781V199.336H424.078V197.781H430.266ZM440.359 198.297H442.312C442.25 199.042 442.042 199.706 441.688 200.289C441.333 200.867 440.836 201.323 440.195 201.656C439.555 201.99 438.776 202.156 437.859 202.156C437.156 202.156 436.523 202.031 435.961 201.781C435.398 201.526 434.917 201.167 434.516 200.703C434.115 200.234 433.807 199.669 433.594 199.008C433.385 198.346 433.281 197.607 433.281 196.789V195.844C433.281 195.026 433.388 194.286 433.602 193.625C433.82 192.964 434.133 192.398 434.539 191.93C434.945 191.456 435.432 191.094 436 190.844C436.573 190.594 437.216 190.469 437.93 190.469C438.836 190.469 439.602 190.635 440.227 190.969C440.852 191.302 441.336 191.763 441.68 192.352C442.029 192.94 442.242 193.615 442.32 194.375H440.367C440.315 193.885 440.201 193.466 440.023 193.117C439.852 192.768 439.596 192.503 439.258 192.32C438.919 192.133 438.477 192.039 437.93 192.039C437.482 192.039 437.091 192.122 436.758 192.289C436.424 192.456 436.146 192.701 435.922 193.023C435.698 193.346 435.529 193.745 435.414 194.219C435.305 194.688 435.25 195.224 435.25 195.828V196.789C435.25 197.362 435.299 197.883 435.398 198.352C435.503 198.815 435.659 199.214 435.867 199.547C436.081 199.88 436.352 200.138 436.68 200.32C437.008 200.503 437.401 200.594 437.859 200.594C438.417 200.594 438.867 200.505 439.211 200.328C439.56 200.151 439.823 199.893 440 199.555C440.182 199.211 440.302 198.792 440.359 198.297ZM450.812 198.297H452.766C452.703 199.042 452.495 199.706 452.141 200.289C451.786 200.867 451.289 201.323 450.648 201.656C450.008 201.99 449.229 202.156 448.312 202.156C447.609 202.156 446.977 202.031 446.414 201.781C445.852 201.526 445.37 201.167 444.969 200.703C444.568 200.234 444.26 199.669 444.047 199.008C443.839 198.346 443.734 197.607 443.734 196.789V195.844C443.734 195.026 443.841 194.286 444.055 193.625C444.273 192.964 444.586 192.398 444.992 191.93C445.398 191.456 445.885 191.094 446.453 190.844C447.026 190.594 447.669 190.469 448.383 190.469C449.289 190.469 450.055 190.635 450.68 190.969C451.305 191.302 451.789 191.763 452.133 192.352C452.482 192.94 452.695 193.615 452.773 194.375H450.82C450.768 193.885 450.654 193.466 450.477 193.117C450.305 192.768 450.049 192.503 449.711 192.32C449.372 192.133 448.93 192.039 448.383 192.039C447.935 192.039 447.544 192.122 447.211 192.289C446.878 192.456 446.599 192.701 446.375 193.023C446.151 193.346 445.982 193.745 445.867 194.219C445.758 194.688 445.703 195.224 445.703 195.828V196.789C445.703 197.362 445.753 197.883 445.852 198.352C445.956 198.815 446.112 199.214 446.32 199.547C446.534 199.88 446.805 200.138 447.133 200.32C447.461 200.503 447.854 200.594 448.312 200.594C448.87 200.594 449.32 200.505 449.664 200.328C450.013 200.151 450.276 199.893 450.453 199.555C450.635 199.211 450.755 198.792 450.812 198.297ZM461.992 200.445V202H455.953V200.445H461.992ZM456.508 190.625V202H454.547V190.625H456.508ZM461.203 195.375V196.906H455.953V195.375H461.203ZM461.953 190.625V192.188H455.953V190.625H461.953ZM467.914 197.758H464.953V196.203H467.914C468.43 196.203 468.846 196.12 469.164 195.953C469.482 195.786 469.714 195.557 469.859 195.266C470.01 194.969 470.086 194.63 470.086 194.25C470.086 193.891 470.01 193.555 469.859 193.242C469.714 192.924 469.482 192.669 469.164 192.477C468.846 192.284 468.43 192.188 467.914 192.188H465.555V202H463.594V190.625H467.914C468.794 190.625 469.542 190.781 470.156 191.094C470.776 191.401 471.247 191.828 471.57 192.375C471.893 192.917 472.055 193.536 472.055 194.234C472.055 194.969 471.893 195.599 471.57 196.125C471.247 196.651 470.776 197.055 470.156 197.336C469.542 197.617 468.794 197.758 467.914 197.758ZM478.492 190.625V202H476.547V190.625H478.492ZM482.062 190.625V192.188H473.008V190.625H482.062Z" fill="white"/>
</svg>
